<svg xmlns="http://www.w3.org/2000/svg" viewBox="0 0 243.77953 136.06299"><title>CLARISSA - Master logo-01</title><path d="M99.38184,114.15025l-.16993-.07422-.10058-.15234-.13819.15625-.06689.19922.24609.02344-.12793.30468-.293.13868-.1626-.04688-.102.17773.03418.35157-.146.1289-.37109.06836-.03955.19141-.1919.291-.79541.72266-.16308-.04492-.08594-.09766-.09668.08594-.1416.36719-.10938.15039-.30859.082-.53516.35156-.32812.11914-.3584.00586.01855.29492-2.08935.71094-.98877.11524-.32666.23632-.11377-.08984-.15528-.01758-.46826.15625-.20166-.30664-.21875-.03125-.02929.33789-.19629.05274-.66993-.15039-.39941.07617-.3584.00586-.6626-.1211-.43164-.15429-.44775.11914-.2041-.42578L86.773,118.371l-.30615.20117-.36524-.02149-.08105-.18945.01855-.1543-.08008-.18945-.11718.12109-.01905.15625-.1455.12891-.29151-.19336-1.10351-.42383-.542-.45312-.62353-.31446-.61865-.40429-.25-.26172.209-.11719-.14941-.10937-.14063.03711-.145.1289-.25439-.50195.07422-.16992-.17871-.22071-.32715.23633-.12891-.14453-.062-.34375-.66113-.45312-.376-.61915-.14062-.4121-.25538-.17188-.3667-.4707-.251-.71289.01855-.15625-.34424-.38672-.09716-.36328.09326-.32618-.1499-.10937-.16651-.28516-.20605-.54492.19629-.05273.09668-.08594-.082-.30859-.10693-.06055-.13232.06641-.15528-.01954.00879-.752.09278-.32617-.22461-.38867-.06153-.34375.01465-.39258.21143-.77734-.10108-.15235-.08984-.33594-.00635-.35937.08545-.35156.15674-.3125.20654-.23633-.10254-.27149-.02148-.41406.1831.00977.30469.1289.01123-.18359-.05859-.10352-.27588-.13671.29932-1.00977.58984-1.26758.76758-1.166,1.15527-1.50977.15528.01953.11425.08985.1543.01757-.13086-.26562.01855-.1543.13819-.1582.3042.1289.125-.09375.104-.50781.3208-.14648.48487-.42774.28515-.168.06006.22461.13477.05469.168-.04687.05372-.13477-.05274-.19531-.24072-.11524.3081-.082,1.05176-.55078.35108-.03515.08935-.11329.57813-.30664.19043.041.1499.10937.9043-.543.04492.168.08642.09766.98487-.35547.96826-.07812-.00293.21093.09277.125.0542-.13476-.01709-.17578.15527.01953.5879-.1582.35107.416.146-.12891.03857-.1914,1.2041.12695.3042.12891.23584.207.34131-.18164.166.28515.11426.08985.2627-.25,1.25293.5332,2.43213,1.24024.08056.1875.26319.19921.17431.3125-.30078.11133-.02539.127.04492.168.16211.04688.13965-.03711.11768-.123-.04493-.168.19043.03907.28614.2832-.10059.29688-.41943.5625-.30567.20312-.30761.082-.51563-.13086-.10889-.18164-.63134-.33984-1.124-.83985-.417-.09765-.291-.19336-.16211-.04492-.23145.03125-.50683-.4336-.27247.10157-.1621-.04688-.09376-.125.01075-.18164-.24414.0957-.18262-.01172-.30469-.1289.0293-.33789-.26953.22265.07226.16016-.3789.041L90.2627,97.246l-.73536.166-1.34961.00391-.64355.17187-.398-.2539-.16211.40429-.644.17188-.21485-.24219-.15283.09961-.19482.502-.749.23047-.59863.33985-.94873.82617-.29346.13672-.248-.14258-.082.14258.12353.23632-.13232.06641-.09375-.125-.082.14063.10888.18164-.98779,1.01562-.80371,1.14453-.32031.59571-.249.63671-.26416,1.03125-.32568.23829.1123.418-.0039.21094-.1001.29688-.11768.12109.0625.34375-.03125.668-.10156.62891.17188.64257-.06494.31641-.08936.11523.12158.11719.251.71289-.01856.1543-.10986.15039-.01074.18359.32666.21289.04931.4043.26368.65039.36084.5625.27685.58789.06983.3711.08545.0957.168-.04492.18164.34179.4375.51172.29.52344.01709.17578.14209.082.16016-.07422.15527.01954.09717.36328.10645.0625.16015-.07422,1.104.873.61132.377,1.47852.59375.34961.29687.19629-.05273.43652.0625.01709.17578.10108.15234.1416.082.03027-.33789,1.61231.19922-.07227.28907.37891-.041.12841-.30469.31006.03711.67334-.0625.33594-.08984,1.73975-.22461.34863-.1543.52-.41015.23144-.03125.1626.04687,1.23877-.75195.57568-.42383.98292-.92383.28173.04492.002-.33008.14306-.25.28516-.166.16406-.2832.147-.459.26661-.01172.22168-.63086.35546-.57422.26319-.252-.01709-.17383.09326-.32422.22705-.27148L99.46,110.412l-.13672-.17383-.0166-.17578.18066-.10937.1753-.01758.33252.12109.43359.27539.22168-.17968.11182-.03125.19824.06835-.10059.29688.09717.36133-.03906.1914-.35059.03516-.13232.06445-.01856.1543.06543.13477.15479.01757.19629-.05273-.08594.35352-1.2832,2.26367Zm-20.55372-10.541.22364-.06055-.09326-.125-.14014.03711Zm.32178-.92578.10108.15234.34521.05664-.22217-.26953-.1831-.00977Zm.2544,6.77148-.18262-.01172.08594.09766Zm.688,3.68555.147-.00977.04687-.16211-.168.04492Zm.1372-9.78711.11231-.0293-.03028-.11328-.1123.03125Zm.09863,10.89453.15528.01758.1958-.05274.0542-.13476-.15528-.01758-.1958.05078Zm.25-11.49805.15235-.10156-.0293-.11133-.18359-.01172Zm.02686-2.13672.18311.00977-.15723-.13672Zm.19775,1.29688.16993.07422.09668-.084-.06543-.13476-.147.01172Zm.6294-1.00977-.23877.00586.07324.16016.11133-.0293Zm.59033,12.95313-.19922-.1875-.17578.01758.06543.13281.13428.05273Zm-.01074,1.41406.293-.14063-.08838-.21484-.31738-.06445-.01856.15429.05811.10352Zm.92578.32031-.082-.30664-.14258-.084.083.30859Zm-.01562,1.17383.125-.09375.10058-.29687-.16016.07421-.082.14063Zm.25781-17.28906.19043.03906.29834-.22852-.23535-.207-.15479-.01953-.1084.26953Zm.42431,17.707.32276-.02734.09717-.08594-.06739-.252-.146.12891-.19043-.03906-.01856.1543Zm.04883-18.4043.18311.01172-.01709-.17383-.17725-.10351.00928.14843ZM84.0249,116.287l.188-.082.01123-.18164-.188.08008Zm.22754.17774.14014-.03711-.03028-.11133-.13964.03711Zm.27783,1.0371.07227-.28906-.21094-.00586-.00342.21289Zm.57813-19.11523.02588-.12695-.06543-.13282-.18311-.00976-.02588.12695.06592.13086Zm.21777,19.62109.11133-.03125-.03711-.13867-.11182.0293Zm.3667-.75781.02588-.12695-.06543-.13281-.15478-.01758-.01905.15429.06592.13282ZM85.644,96.8026l.188-.08008-.02392-.20313-.18848.08008Zm2.42627,21.82031.01123-.1836-.1084-.18164-.1958.05274.1587.25781Zm1.22168-21.418.13428.05469.20361-.02539.01074-.18164-.10839-.18164-.16065.07421-.08935.11329Zm.61133,21.31641-.166-.28516-.15527-.01953.05274.19726.09277.125Zm.82813-.49219.17578-.01563.04589-.16406-.168.04492Zm.36718-22.02735-.02978-.11132-.12647-.02735.002.11914Zm.0127,21.20508.09375.125.18262.01172-.10108-.1543Zm.57275,1.4668-.00928-.14844-.25585-.16992-.01075.18359.10059.15039Zm.28174-22.125-.05273-.19531-.19532.05273.09327.125Zm1.25488,21.14258-.10791-.17969-.14209-.082.08057.18945Zm.63379-21.25781-.07275-.16016-.17529.01562-.09717.08594.17724.10352Zm-.27929,20.56445.11181-.03125-.02978-.11133-.11231.0293Zm.85644-20.08985.11231-.02929-.03028-.11328-.11181.03125Zm.207,19.80469.13184-.0664.019-.1543-.09375-.125-.15478-.01953.03173.23242Zm.32227-19.28515.15234-.10157.04688-.16211h-.11963l-.09717.08789Zm1.083.459.01855-.1543-.2207-.15039-.01856.1543.06543.13281Zm-.12745,1.20313.3003-.10938.13476.05273.02539-.127-.04492-.168-.168.04492-.05371.13477-.15527-.01758Zm.38721,16.33593.13477.05469.01855-.1543-.12744-.02734Zm.00391-17.33984.10058.15234.31934.18555.01855-.15625-.05273-.19531-.09326-.125-.1958.05273Zm.34472,16.73633.1958-.05274.02588-.127-.252.06836Zm.11573-15.24024.252-.0664-.019-.29493-.09327-.125-.1958.05274-.00879.30273Zm.63867,15.81836.168-.04492-.19776-.06641Zm.32178-.92578.14746-.00976.04687-.16211-.168.04492Zm1.60839-2.17187-.02978-.11133-.12744-.02539.002.11914Zm.16895.85546-.293.13868.02637.32226.19043.03906.18652-.19921.01856-.15625Zm-.23731-1.55664.14014-.03711-.02978-.11328-.14014.03711Zm.293-.13867.18311.01172-.15674-.13867Zm.31934,1.41406.17871-.22656-.09326-.125-.1626-.04687-.21631.08789.29688.10156Zm.23633-1.80273-.07324-.16016.0166-.27343-.33008-.002-.01807.1543.103.27148.13379.05469Zm.20117,1.08594.08984-.11328-.00976-.14649-.09375-.12695-.1543-.01758-.04687.16211.02441.20313Z" fill="#494263"/><path d="M118.125,111.10924l.10889.18164.14209.08008.21045.0039-.05372.13477-.14013.03711-.33789-.0293-.293.13867-.35254-.08594-.29834.23047-.34912.15235-.3584.00586-.41846-.21485-.20654.23438-.57812.30468-.68506.24219-1.05078.22266-.62842.22656-.10108-.15039-.28955-.07227-.02539.127.09278.123-.38379.13282-.34571-.05664-.06543-.13086-.05371.13476-.24267.21289-.293.13868-.35108.0332-.5-.07422.06739.25-2.71485.72852-1.49853.34179-.34619-.50586-.14161-.084-.34765-1.40625.0376-.31055-.22266-.26953-.01709-.17578.082-.14258-.12109-.11719-.126-.35547.01123-.18359.082-.14062-.33056-.45313-.05176-.52734.07471-.168-.24317-.23633-.12744-.47461.09277-.32422-.21435-.24219-.24756-.4746-.00928-.14844.125-.0918.0542-.13476-.34082-.59961-.04687-.28711.12109-.332-.24316-.23633-.13868-.291-.00586-.35937.04688-.16211-.39649-.584-.05468-.3164.12842-.30274-.34034-.59961-.05468-.31445.1289-.30469-.16308-.04687-.22217-.27149-.08057-.1875-.01367-.38672.0752-.16992-.12207-.11719-.31446-.7246.05371-.13477.13282-.06641.05419-.13476-.15478-.01758-.1499-.11133-.11768-.32812-.01025-.59571.0542-.13476-.32276.02539-.104-.7207.02978-.3379.08936-.11328-.13428-.05468-.22314-.27149-.06934-.37109.17188-.25586-.41162-.64063-.04346-.49609.10254-.17773-.07324-.16211-.32911-.33008-.04492-.168.04639-.16406.15283-.09961-.5918-.98242.16748-.04493.11719-.12109.02588-.12695-.07275-.16016-.24854-.14258-.1543-.01953-.02734-.32226.231-.48243.27783-.19531.4707-.03516.14942.11133.41015-.26172.19043.03907-.01806.15625-.14405.248.23536.207.27539.4668-.0293.33594-.11768.12109.23.29883.146.32227.0542.31445-.16358.28516.13428.05273.22266.27148.11816.32813-.06543.31641-.11718.12109.10058.15234.30469.12891.0415.37891.27,1.00976-.01758.60352-.0542.13476.065.13086.31054.03711.14258.5332-.22266.17774.09424.12695.15479.01758-.02588.127.24316.68555-.00146.33008-.14551.1289.2915.19141.13868.293.00586.35742-.12842.30469.16211.04687.21533.24219.09766.36524-.04639.16211-.11817.12109.46.59766.03222.23046-.17285.13672-.06738.19727.40918.52148-.04639.16211.05469.31446.271.67773.0625.34375-.12109.332.09912.0332.22217.26954.14258.5332-.05371.13281-.125.0957.24316.23438.17383.31445.06152.3418-.15625.3125.08008.1875.28467.16406.11084.75.27148.67774.09326.125-.05419.13476-.16016.07227.10644.0625.16651.28515.26807.88868.18652.248,1.2876-.34375.71484-.13086.32861-.11914.27735-.19531,1.36621-.27539,1.21679-.38672.32471.09375.46631-.27539,1.74805-.52734.65332-.02539.32666-.23829.26123.08008.27832-.19336.32812-.11914,1.373-.248.97266-.291-.06543.31836.13867.293.27832-.19336-.08106-.18945-.12109-.11719.01856-.15625.20312-.02344.27637.13672.11084.29883-.06494.31836-.11719.12109.36426.35352.07275.16015-.03125.2168-.25244.06836-.106-.06055-.0376-.14062-.16259-.04688-.13233.06641-.02588.12695.04493.168-.14747.00781-.4458.24024-.23144.03125.00342-.209-.10889-.18164-.10645-.06055.07325.16016-.18262-.01172ZM100.42383,93.41392l.16308.04688.23047-.0332.15332-.10157-.1084-.18164-.1416-.08008-.293.13868Zm.30762,1.14649.29492-.01953.125-.09375-.12354-.23633-.30762.082.00928.14844Zm.67089-.63086.252-.06641.01123-.18359-.07276-.16016-.14941-.10937-.17578.01758.03418.34961Zm.04883,2.86719.1958-.05274.09717-.08594-.07324-.16015-.09863-.0332-.07471.16992Zm.293-1.81641.19141-.293-.28907-.07226.03174.23046Zm.04053,2.83789.14013-.03711-.03027-.11328-.13965.03906Zm.10986-1.83008.1416.084.21094.00195-.07324-.16016-.26074-.08007Zm.20117,3.2168.125-.09375.0293-.33789-.19531.05273.01709.17578Zm.15137-1.90039.127.02539.19532-.05273-.10059-.15235.00342-.21094-.24219.21485Zm.86865,4.02734-.04541-.168-.13379-.05468.0166.17578Zm.10938-.59961.22949-.15234-.07324-.16016-.18262-.00976-.02588.12695Zm.15674,3.04883.14013-.03906-.12744-.47656-.14014.03906.062.34375Zm.54785,2.043.16015-.07422.06153-.10547-.20557-.0957-.02588.127Zm.44726,1.10742.11182-.02929-.0376-.13868-.11181.0293Zm.28467-.61523.188-.08008.07519-.16992-.168.04492-.09717.08594Zm.52783,1.29883-.166-.28516-.0542.13477.06543.13281Zm.28516,2.74414-.09326-.125-.2749-.01758.15722.13867Zm-.187-1.92969.03955.25976.34326-.0625-.13818-.293-.14746.00976Zm.229,1.07812.09766.36329.293-.13868-.18164-.34179Zm.72754,1.48438.02637-.127-.06543-.13282-.17578.01758-.02539.127.06543.13282Zm.6001,3.46875.18262.01172-.16456-.166Zm1.04834-.33984.15527.01757.01856-.15429-.12745-.02539Zm1.48535-.2793-.12109-.11524-.14551.127.11914-.002Zm.71289-1.48047.11816-.12109-.02539-.20313-.13379-.05469.02442.20313Zm.60352.34961.01855-.15625-.1416-.082-.01856.15625Zm-.10938.59766.14014-.03711-.02979-.11133-.14013.03711Zm.52881-1.16211.1958-.05079-.08594-.09765-.13965.03711Zm.31885-.26368-.1084-.18164-.11231.03125.08594.09571Zm.84326-.43554.21045.00195-.18457-.12891Zm1.19971-.11328-.02442-.20313-.16992-.07422-.02588.127.06592.13281Zm.51855,1.15234.11231-.0293-.03809-.14062-.11133.02929Zm.12988-.63477.32325-.02734-.09375-.125-.14747.00977Zm.27881-.97461.1499.10938.1709-.25586-.21093-.00391Zm.48682,1.36915-.01172-.26758-.13184.0664.00928.14649Zm.37793-.94141.19629-.05274-.08594-.0957-.14746.00781Zm.09765.36328.13965-.03711-.03711-.13867-.13965.03711Zm.53272-.92187-.08057-.18946-.21093-.00195.08056.1875Zm1.03857-.48829.12744.02539.02588-.127-.12695-.02539Zm.72364.79493.1123-.0293.01856-.1543-.127-.02539Zm.24023-.78321.35059-.03515.125-.0918-.08789-.2168-.12207-.11914-.292.14063-.01855.15429Zm1.11816.03125-.14209-.082-.20361.02344.02686.32422.19384-.17188Z" fill="#494263"/><path d="M127.5332,85.42955l.17383.3125.13477.05469.13281-.06641-.04785-.28711.18262.01172.12207.11719.22851.6289.31738.06446.24317.23437.27441.4668.25586.17187.01367.38672-.05468.13281.34375-.06054.17089.07422.0127.38672.06641.13281.30175.00781.63184.791.13867.293-.00195.33008.11426.08985.19629-.05274.15429.01758.14649.32227.207.21289.17578-.01563.05273.19531.65235.75391.1582.25781.0625.34375.25195-.0664,1.22852,1.56054.16992.52344.33789.0293.63379.91015.24316.23633.31153.15625.15332.34961.19433.27539.45118.44922.40918.52149.15332.3496.41308.3086.08789.2168.334.24023.376.61914.90332,1.01953.626.88086-.0459.16211-.16113.07227.52344.16015.207.21485-.04688.16211.43457.27539.44434.541.39941.3711-.08691.23242.2666-.00977.36816.5918.665.6914.36914.5918-.207.23438-.33593.08984h-.33008l-.13477-.05469-.26269.25-.168.04492-.31739-.06445-.3125-.15625-.21386-.24219.14062-.36914-.22168-.26953-.33593.08985-.376-.61914-.70313-.832-.21191-.45312-.32422-.09375-.07324-.16016-.36231-.23242-.05273-.19726-.1875-.25-.24805-.14258-.30957-.03711-1.63281.28711-.26562-.31836-.11036.15039-.14062.36719-.67188.17968-.0664-.13281.07519-.168-.15332.09961-.28125-.043-.05468.13282.02734.32226-.55469.05859-.1875-.248-.30762.082-.08886.11328.05273.19531-.54492.20508-.18359-.00976-.00391-.23829-.2793.07422-.02539-.20312-.125.09375-.001.33008-.7129.25-.22363-.38868-.10937.26758-.21387.209-.55957.15039-.13672-.17383-.16211-.04688-.13281.06641-.04395.28125-.72754.19531-.1875-.25-.13476-.05273-.125.0918-.0293.33789-.76269.17382-.31739-.06445-.02636.127-.25684.15821-.37109.07031-.40625-.28125-.082.14258.12109.11719.00293.11914-1.34375.35937-.82422.28125-.31641,1.28516-.0625.88672-.29492.01953-.124.09375.09277.125.22559.06054-.23731,1.35157-.28027.40625.21094.45312-.03906.18945-.28321-.16406-.15332.10156-.13574.27735.06543.13281.1748-.01758.13477.05469-.00391.209-.09668.08594-.36621-.02148-.13476-.05274-.14453.12891-.01172.18164-.67383.06055-.44336-.08985.14355-1.02929.13575-.27735.27832-.19336-.22461-.83984.22558-.39063-.083-.30859.18652-.64844.00781-.30273.26758-.01172.10742-.26953-.25-.26172.22266-1.41016.15625-.31054-.11621-.21094.31347-1.4043.082-.14062.08106-1.041.13574-.27734.11719-.1211-.11719-.32812.17188-1.03711-.01661-.17578.30762-.082.14551-.12891-.04492-.168-.21289-.123-.03418-.35157.28808-1.27734.01172-.51172.36426-.09766-.02637-.32226L124.5,96.05064l-.168.04492.12891-1.084.09277-.32422.168-.04492.14355-.25-.2373-.32422.10742-.7207.19824-.71289.40625-.94727-.09375-.12695-.13379-.05274.3418-1.41015-.00488-.68946.18359.01172.16016-.07422.0459-.1621-.209-.334.0293-.33789.18555-.65039.11523-.68945-.04883-.40821.29492-.01953.13575-.27539-.30469-.1289.05762-.34571.15234-.10156.292.19336.21094.00391.09668-.0879-.082-.30664.60058-.2207Zm-5.18359,24.42773.28906.07227.17578-.01563.02344-.248-.10059-.15235-.13476-.05468-.13965.03711-.082.14257Zm.26953-1.90234.11231-.0293-.06055-.22461-.11231.0293Zm.43457,1.17383-.00586-.35938-.16308-.04687-.01758.15625.05176.19531Zm-.08594-1.77735.125-.09375-.03027-.11132-.1543-.01758Zm.22461.83985.17969.2207.15332-.09961.07227-.28906-.15528-.01953-.13183.06445Zm.52539-5.541.11231-.02929-.03809-.14063-.11133.0293Zm.24317,4.82422-.10156-.15234-.168.04492.09375.125Zm.2666-1.68945-.0166-.17578-.34766-.17774.03711.14063.14941.10937Zm.19043-7.46094.0293-.33984-.18262-.00977.01953.29492Zm.252,2.8418.18262.01172-.15625-.13868Zm.47266-5.73633-.32227.02734.09278.123.14746-.00781Zm-.11035-1.53125.11816-.12109-.01758-.17579-.18261-.01171Zm.11328.86914.07324.16016.29687.10156.13282-.06445-.24317-.23633-.127-.02539Zm2.26465-5.76563-.082.14258-.16992.70508-.168.04492.11719.32813-.05664.3457-.27148.22266.24121.11523-.31153,1.52344-.2666.01172.0166.17578.26563.31836-.10059.29687-.0791.71094-.18262.43945-.125.09375.21.334-.22168.6289-.13086,1.41407-.30762.084.18652.25-.23925.00391.1289.14453.07715.40039-.124.09375-.14844.00781-.06152.10742.16308.04688.04688.28711-.10059.29492-.05859.67773-.19532.502-.11816.12109.16992.07422-.09765.416.0664.252-.26367,1.03125-.01172.51367.13867.293,1.56739-.41992.82421-.28125.06739.25195.127.02539.11524-.24023.125-.09375.15527.01758.377-.16016.18262.01172-.001.33008.05762.10351.16211.04688.07519-.16993-.1123-.41992,1.35059-.332,2.77636-.834,1.48535-.27735-.13574.27735.05274.19531.14453-.12891.10058-.29687L134.834,99.912l1.28516-.46484.51856-.07813.123-.21289-.15527-.46875.04687-.16211-.25683-.17187-.84082-1.125-.458-.47657.09668-.08593-.02637-.32227-.36426.09766-.24218-.23633-.28223-.49414-.34473-.38672.125-.09375.02637-.12695-.16211-.04688.00293-.21094-.13476-.05468-.01758.15625-.10449.05859-.21583-.24414-.02539-.32227-.55468-.39062-1.11328-1.35156-.01075-.26758-.51953-.37109-.63965-.81836.08008-.26172-.08008-.1875-.18359-.01172-.27637-.13672-.73242-.94336.32813-.11719-.00977-.14843-.1748.01757-.2295.15039-.46582-.5039-.73242-.94336-.26367-.19922-.30469-.12891-.21191.77539.01758.17579Zm-2.08789,2.0586.07324.16211.15527.01758.19531-.05274.03711-.31055-.18261-.00976-.08985.11328Zm.59179,5.12109.02637-.12695-.082-.30664-.18652.19922-.17774-.10157-.01074.18165.09277.125.16309.04687Zm-.05664-3.793-.00976-.14843-.16211-.04688-.01075.18359Zm.15528,2.92774.01074-.18164-.16211-.04688.07226.16016Zm-.06055-1.9043.03027.11328.09668-.08789-.09277-.125Zm.62988-2.68945.168-.04492-.05762-.10352-.14746.00977Zm.70508,12.26172.125-.09375.04687-.16211-.08593-.09766-.04688.16211Zm2.33594-.68555.1289.14453.21094.00391.002-.33008-.22461.06055Zm.68164-12.57227-.3086.082.07325.16015.15527.01953.125-.09375Zm.00781,11.78711-.00879-.14843-.19043-.03907.07227.16211Zm.3457-11.252.28321.16406.2041-.02343-.10156-.1543-.32422-.0918Zm.292,1.0918.08105.1875.16992.07422.24024-.334-.22461.06055-.16211-.04688Zm.49414,10.12695-.12793-.47656-.168.04492.01953.29687.12109.11719Zm.35254.08594.07324.16015.27636.13672.01465-.39453-.2041.02539Zm.60742-10.27344.18457-.31836-.21094-.00391-.14551.12891.002.11914Zm-.10742,1.94922.1875-.08008-.00879-.14844-.23536-.20507.01856.29492Zm.168,7.9043.07032-.40821-.21094-.0039-.082.14257.04492.168Zm.92578.32226.03711-.31055-.13476-.05273-.03125.21875Zm.1543-.88086.08008.18946.12695.02539.1045-.0586.04589-.16211-.02343-.20508-.15332.10157Zm.31738-7.43359.36426-.09766-.08008-.18945-.21191-.00391-.0459.16407Zm.49512,8.11523.18848-.08008.00293-.21093-.168.04492-.06055.10742Zm.82129-6.33984.083-.47266-.32227.02735.12891.14453-.01172.18359Zm.19922.9668-.14258-.082.08887.2168.20312-.02539.085-.35156-.19824-.06836.05274.19531Zm.18457,4.7207.11133-.0293-.08594-.09765-.124.09375Zm.16406-5.32227.22364-.06054.05371-.13477-.22364.06055Zm.19824.96485.458.02734-.13867-.293-.25781.16016Zm.54395,1.02539.1123-.03125-.03027-.11133-.11133.0293Zm.47656-.57813.13965-.03711-.03027-.11328-.13965.03906Zm1.582,1.76563.15528.01758.05371-.13477-.1543-.01758Zm1.77637,4.05469.12891.14453.125-.09375-.0166-.17383-.14063.03711Zm.50684.43359.13965-.03711-.03028-.11328-.13965.03711Zm.39062-.55469.15528.01758.22363-.05859.15332-.10157-.1084-.18164-.16992-.07422-.01172.1836-.168.04492Zm.38965,1.00586.06543.13086.30762-.082.06152-.10547-.13379-.05469-.13965.03711Zm.57715,1.25586.166-.16406-.10937-.18164-.14844-.10938-.2041.02344.02637.32227.11426.08984Zm.33789-.75195.06152-.10742-.00879-.14649-.09375-.125-.15527-.01953-.06152.10742.01757.17578.09376.125Zm.71191.52929.07129-.4082.10059.15234-.04492-.168-.14942-.10938-.17578.01758-.03906.18945.11621.209Z" fill="#494263"/><path d="M162.01855,97.69713l.08985-.11328.56543.207-.16406.28515.06543.13282.13476.05273.34375-.06055.27051.22657.1084.18164.39648.13476.1211.11719.05273.19531-.35645.125-.17382.13672-.209-.334-.36426.09765-.09668.08594.07227.16016.11426.08984-.01856.1543-.70117.06836-.209-.334-.36426.09766-.12793-.02539-.08594-.09766-.09765-.36328-.08594-.09766-.31445.05469-2.168-1.81836-.70411-.50195.03028-.33789-.13477-.05469-.20312.02539-.19824-.0664-.167-.28711.05469-.13477-.12207-.11719-.36621-.02148-.14844-.10938-.08789-.21484-.31055-.03906-.50781-.55274-.85449-.61133-.25-.26367-1.30371-.16015-.59277.248-.11719.1211-.31934-.1836-.23535.24219-.293.13867-.32226.02735-.35352-.084-.08887.11328-.31347.17188-.39942.07812-.3457-.05664-.27051.22266-.55957.14844-.30469-.127-.29589.34766-.47559.12891-.32031-.1836-.03321.09766.04493.168-.69922.1875-.46289.06445-.13477-.05469-.35351.2461-.22657.38867.10449.72265.36719,1.373.48731,1.36719.26172.98047-.02149.36523.64453,2.40821-.36718.30664-.19532.05273-.06054-.22266-.291-.1914-.17188.25586.002.11914.10156.15234-.56738.12305-.19043-.03906-.10938-.63086.19825.0664.14746-.00976.09668-.08594.03125-.21875-.19239-.1582-.16015.07422-.207.23437-.375-1.39844-.23633-.6582-.28321-1.39258-.35253-1.3164-.43653-1.293-.08887-.666-.13769-.291-.12207-.11915.04492-.28125-.76855-2.64453-.66407-2.70117-.31152-1.38672-.333-1.02148-.07031-.82227-.17969-.2207-.26758-.88867.18262.01172.1416.082.125-.09375-.08008-.18946-.1621-.04492-.18164.10938-.333-1.02149.416.09766-.15332-.34961-.14551.12891-.14746.00976-.31152-1.38476-.251-.71289.44825-.1211.07421-.16992-.14941-.10937-.25.1875-.17578.01562L140.419,82.246l.082-.14258.28613-.166.52051.041.16015-.07422.19239-.291.62988-.10937.65723-.23438.32226-.02734.30469.12891.13086-.18555.03906-.18945.76465-.05469.14258.082.26953-.22461.52441-.168.33789.02734.14258.082.15234-.09961-.02441-.20313.68652-.125.22071.15039.56347-.36133.46973-.03515.1709.07422.08105-.14258.25-.18555.33594-.08984.35938-.00586.16211.04687.06054-.10742.31446-.17383.3789-.041.32422.09179.082-.14257.25781-.15821,1.36719-.15625.01953.29493.11231-.0293.05761.10351-.04687.16211.08594.09766.14551-.12891.0039-.21093-.09375-.125-.18262-.01172.08985-.11328.34277-.0625.65723.21484.36328-.09766.35352.084-.17383.13672.22265.27148.14258.082.14453-.1289.01953-.15625-.13476-.05274.13281-.0664.19727.06835.20312-.02539.19531.27735.373.05078.95606.43359,1.34668,1.10938-.03614.30859.05176.19531.14258.082.16015-.07227.1543.01953.126.35547.40234.49219.17383.31445-.207.23438.10058.15429.34571.05664.05078.52539.1289.14453-.19531.05274-.17871.22851.1211.11719.36621.02344.19433.72656-.168.04492-.22168.17969.44629.21094-.01562.72461-.04688.16211-.11718.12109.10058.15235.083.30859.00586.35742-.24317.99609-.02929.3379-.416.35156.13867.293-.24316.21484-.21777-.03125-.06153.10547.09961.48437-.08984.11329-.18848.082-.23633.57226-.32617.23633-.44726.57031-.5127.4375-.16406.28516-.01856.1543.11817.32812.23535.207.63867.36914.28027.375.16993.07422-.18067.5586.48926-.19141.332.12109-.085.35352.14941.10937.35645-.125.33789.47852,1.14551.80273,1.40332,1.09375-.05469.13477-.10351.05859-.05469.13282.05273.19726.09375.125.13477.05274.166-.16211-.14257-.084ZM141.9707,82.10142l-.18359-.01171.09375.125Zm.2959,6.36914.16895-.04492.15039-.2207-.14746.00977-.28418-.16407.02636.32227Zm3.16113-6.00585-.47656.127-.29687-.09961-.29981.10937-.61914.377-.36621-.02344-.56152.48047-.10938.15039.041.37891.36621,1.252-.00195.33008-.25586-.17188-.01856.15625-.08887.11328.05176.19532.15528.01953.11718-.12305.14746-.00977.08887.2168.01758.29492.11914.33008-.35156.0332-.10449.0586-.01856.15429.458.02735.11328.08984.4209,1.56641-.084.47265.15528.01758.08593.09766.36719,1.373.23535.65625-.31445.05273-.01953.15625.15527.01758.13282-.06445.11425.08984.11133.75-.082.14062.2373.32813.40918.96875.208.21484.47949.11133.23633-.123.60352-.10156.6416-.293.25586.17188.27246-.10156.64746-.38477.168-.04492.10059.15234.19043.03906.08984-.11328.30566-.20312.49805-.043.14258.082.28515-.166.18653-.19921.35644-.127.22071.15235.15429.01757.40332-.2871.335-.08985.35938-.00586.16211.04492.27051-.2207.18847-.082.37891-.041.11328.08985-.01172-.26758.69336-.21484.66211-.32813,2.084-1.39844-.082-.30664.082-.14258.293-.13867.08985-.11328-.0791-.06836.01855-.15625-.05273-.19531.52832-.38281-.251-.26172.082-.14258.06152-.55664.082-.14258-.042-.37695.04688-.16406.16015-.07227-.2373-.32617.001-.33008-.11133-.75-.501-1.42578-.27344-.3457.084-.47266-.40137-.043-.97949-.9668-.54785-.36523-.91992-.41406-.50782-.10352-.26562-.31836-.44727.11914-.85742.05078-.293.13868-.19043-.03907-.30078-.33984-.01074.18359-.24219.21485-.40039.07617-.47851-.11133-.11817.12305-.34082.17969-.3789.041-.3252-.0918-.10254.17774-.291.25781-.17578.01758-.26855-.10938-.30957-.03711-.082.14258-.25.1875-.31543.05469-.55664-.0625-.07422.17188-.28516.166-.35058.0332-.38086-.07812Zm-2.70019,7.05273.13965-.03711-.12891-.14648Zm.18066,1.12305.11524-.24219-.23926.00391.03809.14062Zm-.0166-8.90625.10156.15234.167-.04492.05468-.13477-.16308-.04687Zm.15918,9.88476.11231-.02929-.03028-.11133-.11133.02929Zm.65625.9961-.18457-.13086-.01855.15429Zm-.13965-4.55274.11231-.0293-.06055-.2246-.11133.02929Zm.458-5.791-.11426-.08985-.18261-.01172.09375.125Zm-.01074,8.13086.19629-.05079.07422-.16992-.16993-.07617-.04687.16211Zm.4707-8.76563-.16211-.04687-.23144.0332.10156.15234.21.00391ZM144.7002,97.328l.07519-.16993-.08691-.09765-.07422.16992Zm.19433-15.16993.19629-.05273.05371-.13477-.0166-.17578-.12109-.11718-.168.04492-.02637.12695Zm-.00586,16.32032.44238-.0293-.09375-.123-.15527-.01953-.13183.06446Zm.41992,1.11718.127.0254-.03028-.11133-.12695-.02539Zm.03125-18.127.14063-.03711-.03027-.11328-.13965.03711ZM145.334,97.78892l.12891.14454.19043.03906.1084-.26758-.13477-.05469-.08984.11328Zm.10157-16.52539.08984-.11523-.14258-.082Zm.10937,19.43946.14649-.00977.04687-.16211-.168.04492Zm.12207-1.89453.19629-.05274-.08594-.09766-.14746.01172Zm.125-1.77344.11231-.0293-.03809-.13867-.11133.0293Zm.03418,4.9414.17578-.01757.10547.0625.09766-.08594-.13672-.17383-.19824-.06641-.05371.13477Zm.48633-1.99023-.18066.10937-.18262-.01171.06445.13281.1836.00976.125-.09179Zm.01465-1.625-.15723-.13672.002.12109Zm.01855-17.2832.33789.02929.15332-.10156-.07324-.16016-.1416-.08007-.168.04492-.09668.084Zm.1211,18.47656.16015-.07227.03418-.09961-.24707-.02343Zm.3789,2.86914-.19043-.03906-.11816.12109.19141.03906Zm.17188-1.93555-.06055-.22461-.18359-.00976-.01758.15429.09277.125Zm.28515-18.97461-.13183-.26562-.15528-.01953.13868.293Zm-.23242,20.07032.09375.125.13965-.03907-.02441-.20312Zm.15235,1.1289.08105.18946.12109.11718.20411-.02539-.02735-.32422-.09375-.123-.16015.07226Zm.20312-22.19336.13672.17383.16992.07422.10938-.15039-.10059-.15234-.19043-.03907Zm.12891,13.46485.126.02539.01856-.1543-.12695-.02734Zm.69922-12.72657.23047-.0332.11816-.12109-.15527-.01758L148.334,80.996l.19336-.17188-.14746.00977-.09668.08593-.04687.16211Zm.10254,13.5918.16015-.07226.0791-.26368-.04492-.168-.1748.01954-.11036.14843-.01074.18164Zm.20507-1.13672.26758-.00976-.05273-.19727-.16016.07422Zm.042-13.38867.17968.2207.16016-.07226.082-.14258-.03711-.13867-.13476-.05469-.11719.12109Zm1.06836,14.17383-.16114-.37891-.13476-.05273.14843.43945Zm.415-14.57227-.03027-.11133-.11914.002.00195.11914Zm.59375,13.97071-.13476-.05469-.13184.0664.13574.17383.18262.00977-.01074-.26563Zm.19825-13.25391-.041-.37695-.28906-.07422.082.30859.08594.09766Zm.15039,12.65039.10742.18164.14062-.03906.0293-.33789-.125.09375Zm.27246-13.42187.01855-.15625-.05176-.19532-.13476-.05273.05371.31445Zm1.04394,12.73828-.21093-.002.09375.123Zm.22852-11.91016.26465-.13086-.04492-.168-.13379-.05469-.0752.16993Zm.4043-.61719.32617-.23828-.09375-.125-.13379-.05273-.32324.02539.0166.17578.09375.125ZM152.918,93.62681l.13281-.06445.05371-.13476-.0166-.17579-.18848.08008-.04687.16211Zm.19531-.95312.15234-.09961.07325-.291-.207.23633Zm.832-12.3418-.28125-.04492-.09765.08594.29687.10156Zm.10547,12.93164.23633-.123-.10742-.18164-.21094-.00391-.01172.18359Zm.64063-13.28125.15039.10938.21.0039-.01856-.29492-.09375-.125-.168.04492-.08886.11329Zm.9375.58789.1123-.02929-.03027-.11133-.11133.0293Zm.34961,1.07813.11132-.03125-.03027-.11133-.11133.0293Zm.18359-.77149.11719-.12109-.1211-.11719Zm.32227,1.20313.3457.05859-.00977-.14843-.10156-.15235-.18262-.00976Zm.21289,9.75391.14062-.03711-.03027-.11328-.14063.03906Zm.5957-10.53907-.05176-.19531-.1416-.082.02344.20312Zm.72851,6.52344.15332-.09961.00293-.21094-.1416-.082-.07422.16992Zm.292-3.94726.07324.16015.15527.01953.00879-.30273-.14062.03711Zm.01953,11.60351.10058.15234h.12012l.09668-.08593-.02441-.20508-.16016.07422Zm.30761,1.14844.11426.08984.19629-.05273.05371-.13477-.21875-.03125Zm.27735-10.27344.1123-.0293L159,86.20689l-.1123.03125Zm1.23828,11.33789.1709-.25781.01855-.15234-.13476-.05469-.14844.33984Zm.32129-.92578.168-.04492-.05762-.10547-.14062.03711Zm.69726.47266.37793-.043L161.501,96.996l-.08594-.09571-.16113.07422-.06055.10547ZM161.419,98.369l.18261.00977.09375.125.1543.01953.02637-.127-.05274-.19727-.15527-.01758-.19531.05274Zm.72753.25391.11817.33008.10644.06054.17579-.01562.01074-.1836-.05957-.2246-.14258-.082-.06836.07813Z" fill="#494263"/><path d="M162.09473,76.37877l.25586-.2793.33593-.08984.18262.01172.39844.2539.10058.15235-.001.33007-.09571.20508.1875.25.15332.34961.06153.3418-.06445.31836.207.21484.14648.32031-.02734.457-.12012.002-.01074.18359.09179.00586.11719-.12109.16016.37695.35351,1.31445.15821.25782-.01758.15429-.21485.207.13477.05469.24219.23438.1914.48828-.02929.33984-.082.14063.29687.09961.06836.70312.10059.15235-.22559-.0586-.09766.08594.38868.55664.12109.44727-.03027.33593.34961.29688.09765.36328-.25.1875-.06152.10742.23535.207.33887.47852-.11035.15039-.01856.1543.29981.66992.06152.34375-.0459.16211-.13769.15625.26367.19922.2334.5371-.01075.1836-.082.14258.293.31054.05469.76563.35449.98633-.03906.18945-.14551.12891.38477.3164.10742.51172-.12891.30469.1211.11719.16308.04492.12207.11914.05957.67383-.0459.16211.335.68945-.01855.15625-.11035.14844-.01074.18359.09375.125.27441.01563.04.71093-.05469.13282-.125.09375.15039.10937.30469.58008.05957.22265-.21777.418.03711.14063-.13379-.05274-.25684.15821-.22461.05859-.08984-.334-.09375-.125-.2168.08789-.07422.16992-.001.33008-.17579.01562-.16992-.07422-.10058-.15234-.01758-.17578.10058-.29688-.20214-.30468-.26368-.65039.168-.04493.10254-.17773-.10058-.15234-.36133-.11329-.07617-.40039.07324-.61914-.33789-.02929-.04883-.40625.03027-.33789.11719-.1211-.24316-.23633-.14551-.32031-.0625-.34375.12793-.30273-.3457-.50782-.11231-.41992.31836-.26562-.207-.21485-.13477-.05468-.17578.01757-.18262-.46093.03907-.19141.15625-.31055-.1084-.18164-.23535-.207L165.001,89.91l.01855-.15625.14258-.24805-.05273-.19531-.35645-.32422-.10449-.39258.14453-.1289.0957-.20508-.40918-.51953-.15332-.34961.03711-.31055.11719-.12109-.13477-.05274-.21484-.24414-.03418-.34961.14355-.25-.11425-.08984-.17481.01758-.01758-.17579-.26367-.64843.21387-.207.01074-.1836-.12109-.11719L163.583,84.619l-.04492-.168.05664-.79492-.12891-.14648-.19043-.03907-.11621-.65625.05371-.13476.16016-.07422-.08008-.1875-.16211-.04687-.12109-.11719L162.876,81.869l-.11621-.6582-.21192-.45508.01856-.1543.13281-.0664-.20215-.30469-.2334-.53711.082-.14258.001-.33008-.36426-.80273.001-.33008.07422-.16992-.25782-.28906-.11816-.33008.06445-.31641.13868-.1582-.09375-.123-.29688-.10156-.05273-.19531.15332-.10156.35839-.00586Zm.22949,1.07812.41992-.11133-.15527-.01953-.17383-.31445-.20313.02539.02637.32227Zm.05176.97657.03711.13867.25195-.06641.11035-.15039-.10644-.06055-.09766.08594Zm.21-1.67579.16992.07227.14844-.00781L163,76.73619l.03223-.21875-.12891-.14648-.15527-.01758-.1045.05664-.082.14258Zm.293,1.08985.19629-.05274.15429.01953.125-.09375-.123-.23632-.27051.2207Zm.00586,3.71875.36425-.09766-.26855-.10742Zm.76953-2.72656-.06543-.13282-.10645-.06054.02539.20312Zm.30371,2.58984.18652-.20117-.0166-.17578-.13281.0664-.05371.13477Zm.24023.89453.11524-.24023-.127-.02539-.07422.168Zm.11621.209.11133-.02929.05469-.13477-.21094-.0039Zm.15039,1.00977.07032.041.25293-.06836-.08106-.1875-.1416-.082-.01855.15429-.09376-.125.00977.14844Zm.77539,5.13281.19043.03907.11719-.1211-.19043-.03906Zm.09473-1.88672.07324.16211.21875.03125.01563-.27539-.18262-.00976Zm.501.97657-.168.04492.03027.11133Zm.05664.43359-.19434-.27734.05957.22461Zm.2998,2.80078-.15234.10156.05762.10352.125-.09375Zm-.11621-1.88867.12793.02539.05371-.13477-.15527-.01757Zm.40918,2.98047-.06543-.13281-.14746.00976.06543.13281Zm-.15332-2.0293.07227.16016.31738.06445-.08008-.1875-.17676-.10156Zm.39356,3.37305.1123-.0293-.08594-.09765-.09668.08789Zm.41894,2.34765.04492-.28125-.14257-.08007-.04395.28125Zm.084-2.15039.12695.02539.02539-.127-.127-.02539Zm.082,3.2168.11133-.0293.03124-.21875-.13964.03711Zm.72656-.64453.07715-.05078.07422-.16992-.06543-.13282-.127-.02539-.01855.1543Zm.13281,1.16406-.05078-.07617.41016-.25977-.1211-.11718-.15527-.01758-.19629.05078.01953.29688Z" fill="#494263"/><path d="M168.44727,78.36705l.22363-.06055-.1709-.19336-.05273-.19726-.19629.05273-.01368-.38672.17872-.22851.10937-.59961.25586-.27735.71094-1.15039.69043-.78515.17676.10351.14062-.03711.15039-.2207.04688-.16211.25-.1875.21093.002.39258-.43359.34961-.1543.19434.27735.1455-.12891.07422-.16992-.02441-.20313.80176-.36523-.0293.33789.12109.11719.16309.04687.2041-.02343-.0459-.168-.22168-.27149.28516-.166,1.293-.43555,2.62109-.4043.1543.34961.1875-.08008.07519-.16992.14551-.1289,1.2041.127.28418.16406.09278.125.27832-.19531.66211.123.62988.22265.28418.16211.24219.23438.252-.06641,1.13965.89453.251.26367-.32617.23633.16211.04688-.11719.12109.11329.08984.46093-.18359.125.35547.46289.7168-.07421.16992.01269.38672.11816.32812-1.51171.4043-.26661-.4375L182.5,75.951l.06641-.19922-.21485-.24218-.292-.19141-.22949-.29883-.08789-.21484-.874-.57617-.30468-.12891-.18262-.00976-.19531-.2793-.38575.01367-.67089-.15039-.20313.02344.04492-.28125-.1416-.082-.32129.14648-.05371.13477-1.01367-.08789-.28027.07421-.11328-.08789-.0254-.20507-.1455.1289-.02344.2461-.39942.07812-.53417.02344-.08594-.09766-.04492-.168-.22754.27149-.32032.14453h-.33105l-.291-.19336-.125.09375-.02929.33789-.5166.19922-.25586-.17188-.22461.06055-.08985.11328-.00781.30274-.46875.15625-.13477-.05469-.40039.40625-.40918-.07031-.1455.1289-.10547.38867-.5127.4375-.63379.76954-.1289.30468-.40137-.043.00977.14844.26855.10938-.17773.67773-.09961.74609.06738.70118.13867.293-.01855.15429-.11719.12305.30371.12695.06055.22461.30273.457.63574.582.6084.25586.63184.33985.98926.33593.33789.0293.37109-.07031.35156.416.15332-.10156.03809-.18945.14258.082.498-.043.12891.14453.36426-.09765.248.14453.15918.25586.18067-.10742.07422-.16993,1.16015-.041.35059.416.22363-.06054.11719-.1211.01953-.15429.34473.05664.87793-.084.09668.36328.08984-.11328.24512-.0957.34961-.03516.748.10157.35743-.00586.124.23632.68652-.125.33789.03125,1.42579.39649.23828.32617.37109-.06836.28418.16211.13086.26563-.02637.127.17578-.01758.17285-.13672,1.26368,1.13281.26172.5293-.25.1875.05273.19531.09863.03321.14063-.03711.01855-.1543.10938-.15039.52832,1.29883V87.578l.126.35742.03418.34961-.05175.70508-.1875.98046-.30957-.0371-.02637.127.18359.459-.27734.19532L187,90.73424l-.13184.06445-.11035.15039.3125.15625.1084.18164-.12305.21289-.46484-.05664-.07422.16992.05567.43555-.10938.15039-.28906-.07422-.14453.58008-.53809.23437-.44141.47852-.30468-.12891-.18262-.01171-.08984.11523.13086.26367-.82813.49024-.33594.09179-.31738-.0664-.49219.40234-.36426.09766-.3164-.06446-.082.14063-.50977.22656-.373-.04883-.14258-.082-.0459.16211-.27832.19531-.3584.00586-.28418-.16406-.29785.22852-.38477.13476-.33008-.00195-.14941-.10938-.14551.12891-.168.04492-.373-.05078-.1416-.08008-.01758-.17578.18652-.20117-.1416-.08008-.11719.12109-.06738.19727.05957.22266-.39941.07812-.3252-.09375-.22754-.17773-.31934.26562-1.76367-.42773-.43359-.27344-.252.06641-.10059-.15235-.31152-.15625-.08106-.18945-.40136-.041L173.002,94.244l-.082-.30664-.30469-.1289-.27148-.22657-.60156-.67968.248-.30665-.05273-.19531-.11328-.08984-.19629.05273-.15527-.01953-.20606-.543.01074-.18359.21289.123.11817-.1211.06348-.4375.5664-.12109.14551-.12891-.00293.21094.09277.125.32325-.02734.1455-.12891.11231.418.376.62109.67286.72071.17382.3125.22266-.17969.27051.22851.64355.27539.15039.10938.38575-.01367.54394.125.45313.23828.11621-.24024.21.00391.333.12109-.19434.17188.10156.15234.19043.03907.15332-.10157.01563-.27343.89257-.0293.14161.082.15332-.10156.04687-.16211.66016.0039,1.01465-.24218.37988-.041.08887-.11523.34179-.18164.39844-.07618.16309.04493.66015-.44532.17578-.01757.24024.11523.07422-.16992.207-.23438.79883-.60547.10937-.14843.28418.16406-.07519-.28125.334-.209.4082-.3789.14063-.03711.02148-.36524.3711-.51953-.02149-.416.16407-.28321-.07325-.16015.0586-.67578-.05078-.52735-.1084-.17968.19629-.05274-.10059-.15234-.30469-.12891-.09765-.36328-.17383-.31445-.73633-.73242-.85156-.49024.0664-.19922-.23535-.207-.14355.24805-.36524-.02149-.54394-.123-.76563-.39649-.5039.13477-.33008-.002-.80469-.20312-.42773.084-.2959-.10156-.10156-.15234-.25782.16015-.52636.05079-.28418-.16407-.09278-.125-.15332.10157-.33594.08984-1.13867.00586-.13672-.17383-.37793.041-.73144-.043-.66309-.12305-.7041-.05078-.00976-.14844.06152-.10742-.14941-.10938-.1543-.01953-.14649.12891-.00976.18555-1.10742-.21485-.3125-.15625-.1211-.11718-.22461.05859-.15429-.01758-.20215-.30664-.13379-.05273-.41406.02148-.23633-.207-.0752-.28125h-.33007l-.749-.66992-.501-.52539-.09766-.36524.02441-.24414-.39062-.22656.01074-.18359-.15332-.34766.18066-.10938.0752-.16992-.07324-.16015-.31055-.03711-.17969-.67188.27832-.19531-.19531-.72656.10059-.29688.11816.32813Zm.72656,2.26367.082-.14258-.06738-.252-.22364.06055-.04687.16406.10156.15234Zm-.03028-3.92187.11524.209.16113-.07227.06153-.10546-.04493-.168-.168.04492Zm.127,5.0664.21191.00391-.165-.166Zm.417-5.7207.26758-.01172-.05274-.19727-.16113.07422Zm.0752,4.86914.25195-.06836-.09375-.123-.13965.03711Zm.20605-5.72461.11133-.03125-.0293-.11133-.1123.0293Zm.37793,1.1875.10156.15234.15235-.09961-.01661-.17578-.14062.03711Zm.76172,5.97656-.06543-.13281-.14844.00977.06641.13281Zm.627-7.84765.168-.04493.02637-.127-.23926.00391Zm.38672,17.56445.22363-.06055.01953-.15429-.05273-.19532-.09375-.125-.16113.07227-.07422.16992.04492.168Zm.30762,1.14844.22363-.06055-.12793-.47656-.16016.07422-.07421.16992.04492.168Zm.26562-.91211.11231-.0293-.03028-.11133-.1123.0293Zm.20313-8.42383.13281-.06445.06055-.10743-.16992-.07421-.16016.07421Zm.19824,9.69727.168-.04493-.0586-.10351-.14746.00781Zm.62207-19.84571.1543.01758.15332-.09961-.22559-.06055Zm.12305,20.27539.15234-.09961-.0166-.17578-.13477-.05469-.01855.1543Zm.39258-20.92383.35156-.0332.0459-.16211-.4795-.11328Zm.0205,10.373.11231-.0293-.03809-.13867-.1123.0293Zm.3711,10.791.08593.09765.11036-.15039Zm.292-.58789.12695.02539.13281-.06641.01856-.1543-.13477-.05468-.125.09375Zm.13476-20.43555.13965-.03711.02637-.12695-.13281.0664Zm.06446,21.40039.10156.1543.16992.07422.168-.04493.08887-.11328.00293-.21093-.16211-.04688-.19531.05273Zm.40527-21.88672-.042-.3789-.19531.05273.11035.30078ZM175.29,83.19127l.12695.02539.02637-.125-.13477-.05469Zm.44434-10.76758-.08594-.09766-.09668.08594Zm-.085.35352.16016-.07422.02637-.127-.17578.01758Zm.083,21.24609.08985-.11524-.00977-.14648-.13965.03711Zm.35547-21.06445.19043.03906.19629-.05274-.08106-.1875-.126-.02734-.125.09375Zm.709-.49024-.01172-.26758-.26661.01368.04493.168.08593.09571Zm-.18848,11.39063.32324-.02735-.07324-.16015-.10645-.06055-.14746.00977Zm.61621-.61524-.08106-.18945-.15527-.01758.07324.16016Zm-.09277,11.63477.11718-.1211.03907-.1914-.18262-.01172-.01953.15625Zm.0166-21.99414.33594-.08985.06835-.07812-.13769-.293-.168.04492.0166.17578-.08984.11328Zm.11621,11.51953.15332-.10156.24023.11523.11035-.14844-.06543-.13281-.33789-.0293-.11718.1211Zm.7539-11.18164.168-.04492.01856-.15625-.06641-.13282-.16211-.04687.00391.24023Zm.24707,21.41211.18946-.08008.07422-.16992-.168.04492Zm.14161-22.08789.2041-.02344.07422-.16992-.17578.01562Zm.09082,11.64648.18066-.10937.00391-.21094L178.5,83.86119l-.01855.15625Zm.61914,10.93164.01562-.39258-.168.04493.01856.29492Zm.21386-1.10547.1084.18164.21094.002-.01172-.26563-.1748.01563Zm.72364.79492.13281-.06445.02539-.12695-.13281.06445Zm.35254-22.082.05371-.13476-.08985-.33594-.15527-.01953-.082.14258.13867.293Zm.10156,1.05274.15527.01758.125-.09375-.1084-.18164-.1416-.082-.04687.16407Zm.18359,9.64062.16016-.07422.05371-.13476-.1748.01758Zm.51367-10.39843-.09667-.36524-.19629.05274-.01075.18359.10059.15234Zm.18653,10.66015.17578-.01758.03906-.1914-.16113.07422Zm.21484,9.8711.15528.01953.15332-.10157-.12891-.14648-.13281.06641Zm.8916-10.10938.19629-.05078.082-.14258-.13476-.05469-.125.09375Zm.24121.11719-.19628.05078.14257.084Zm-.18164,9.73828.09473.125.29688.09961.11523-.24024-.04492-.168-.19043-.03907-.01074.1836-.15528-.01953Zm.02344-18.27734.16016-.07227.07519-.168-.168.04492Zm.52832,1.29882.28516-.166-.07324-.16016-.32422-.09375-.02637.12891.04492.168Zm.13184,7.43555.03027.11133.15527.01953.06836-.08008-.02929-.11133-.0918-.00586Zm.03711-8.25977.33789.0293.15234-.10156.01172-.18164-.12109-.11719-.28028.07422-.082.14062Zm.40039,18.4004-.05176-.19336-.18359-.01172.07324.16015Zm.51562-1.54688.11231-.0293-.03809-.14062-.11133.0293Zm.68555-7.293.1123-.0293-.08593-.09765-.09766.08594Zm.956,6.252.01856-.15429-.13477-.05274-.01855.1543Zm.544-.65429.1123-.03125-.08593-.09571-.09668.08594Zm1.22949-2.12891.18653-.20117-.04493-.168-.23925.00391.07324.16211Z" fill="#494263"/><path d="M187.59082,73.23619l.22363-.05859-.17187-.19532-.05176-.19531-.19629.05274-.01367-.38672.17969-.22852.10937-.59961.25488-.27734.71192-1.15039.68945-.78516.17774.10156.13964-.03711.15137-.2207.04688-.16211.249-.1875.21094.00391.39355-.43506.34864-.15332.19433.27734.14551-.1289.07519-.16895-.02539-.2041.80274-.36426-.0293.33692.12109.11718.16211.04688.20411-.02442-.0459-.168-.22168-.26954.28515-.167,1.293-.43652L196.627,66.765l.15332.34961.18848-.08106.07422-.16992.14551-.12891,1.2041.12793.28418.16309.09277.126.27832-.19434.66309.12207.6289.22168.28418.16309.24317.23535.25195-.06738,1.13867.89355.251.26318-.32617.23829.16211.04687-.11719.12109.11426.08985.46093-.1836.125.35547.46192.7168-.07422.16992.01367.38477.11719.33008-1.51074.40429-.26758-.4375-.02442-.20508.06641-.19726-.21484-.24219-.292-.19336-.22851-.29687-.08887-.2168-.874-.57422-.30469-.12891-.18262-.01171-.19433-.27784-.38672.0127-.66992-.14941-.20313.02343.04395-.28125-.1416-.082-.32129.14649-.05371.13476-1.01368-.08887-.27929.0752-.11426-.08887-.02441-.2041-.14649.12891-.02344.24609-.39941.07813-.53418.02246-.08594-.09766-.04492-.168-.22656.27149-.32129.146-.33106-.00195-.291-.1919-.125.09473-.0293.3374-.5166.19922-.25586-.17187-.22363.06054-.08985.11329-.00878.30078-.46778.15625-.13476-.05274-.40137.40625-.40918-.07031-.14453.12891-.10645.38867-.51269.4375-.63379.76953-.12793.30469-.40137-.043.00879.14648.26953.10938-.17871.67773-.09961.7461.06738.70312.13868.291-.01856.15625-.11719.12109.30372.12891.06054.22461.30274.457.63574.58007.6084.25782.63183.33984.98926.33594.33789.0293.3711-.07032.35156.416.15332-.10156.03906-.18946.1416.08008.499-.043.1289.14649.36328-.09766.249.14258.1582.25781.18164-.10937.07422-.168,1.15918-.041.35058.416.22461-.06055.11719-.12109.01856-.1543.34472.05664.87793-.084.09766.36328.08887-.11524.24511-.09375.35059-.03515.74609.09961.35938-.00586.123.23828.68653-.125.33789.02929,1.42676.39649.2373.32812.37207-.07031.2832.16406.13086.26563-.02636.12695.17578-.01758.17383-.13671,1.26269,1.13085.26172.5293-.249.1875.05175.19727.09961.0332.13965-.03711.01856-.15625.10937-.14844.52832,1.29883.001.44727.125.35742.03418.35156-.05176.70508-.1875.97852-.30957-.03516-.02637.125.1836.46094-.27735.19531-.29492.01758-.13281.0664-.10938.15039.31153.15625.1084.17969-.12305.21289-.46484-.05469-.07422.16993.05664.43554-.10938.14844-.29-.07226-.14453.58007-.53808.23243-.44141.47851-.30469-.12891-.18262-.00976-.08886.11328.13086.26367-.8291.49219-.335.08984-.31836-.06445-.49218.40234-.36328.09766-.31739-.06445-.082.14062-.50879.22656-.374-.04882-.1416-.084-.04688.16406-.27734.19336-.35938.00586-.2832-.16406-.29883.23047-.38476.13281h-.33008l-.14844-.11133-.14648.12891-.167.04492-.374-.04883-.1416-.082-.01758-.17383.18653-.20117-.14161-.082-.11718.1211-.06739.19921.06055.22266-.40039.07813-.32422-.09375-.22851-.17774-.31836.26367-1.76368-.42578-.43457-.27539-.251.06836-.10156-.1543-.31153-.15625-.08105-.1875-.40039-.043-.16993-.07421-.083-.3086-.30469-.12695-.27051-.22852-.60254-.67773.249-.30664-.05274-.19727-.11426-.08789-.19629.05274-.15527-.01953-.20508-.54493.01075-.18164.21289.1211.11718-.1211.06348-.43554.56738-.123.14453-.12891-.00293.21289.09375.123.32227-.02539.14551-.12891.1123.418.376.6211.67285.71875.17481.31445.22167-.17969.27051.22656.64453.27735.14942.10937.38574-.01367.54395.125.4541.23828.11523-.24023.21094.00195.332.12305-.19434.16992.10157.1543.19043.03906.15332-.10156.0166-.27344.8916-.0293.1416.08008.15332-.09961.04688-.16211.66015.002,1.01465-.24218.37988-.041.08887-.11328.3418-.18164.39844-.07813.16308.04688.66016-.44727.17578-.01562.24121.11523.07422-.16992.207-.23633.79785-.60351.10938-.15039.28418.166-.07422-.28125.333-.209.40917-.38086.13965-.03711.02149-.36523.37109-.51758-.02148-.416.16406-.2832-.07324-.16016.05957-.67773-.05078-.52539-.1084-.17969.19531-.05273-.10059-.1543-.30468-.127-.09766-.36524-.17383-.3125-.73633-.73242-.85156-.49219.06738-.19726-.23632-.207-.14356.248-.36523-.02148-.54395-.125-.76562-.39453-.50391.13476-.33008-.00195-.80468-.20508-.42774.08594-.2959-.10156-.10156-.15235-.25781.1582-.52637.05079-.2832-.16211-.09375-.127-.15235.10157-.33593.08984-1.13868.00586-.13671-.17383-.37891.043-.73145-.04492-.66308-.12305-.70313-.05078-.00976-.14844.06152-.10547-.14941-.10937-.15528-.01953-.1455.1289-.01075.1836L191.5791,78.828l-.31152-.15625-.12207-.11914-.22363.06054-.1543-.01758-.20313-.30664-.13379-.05273-.415.02148-.23437-.207-.07617-.28125-.33008-.002-.749-.668-.501-.52734-.09766-.36328.02442-.2461-.39063-.22461.01075-.18359-.15333-.34766.18067-.10937.07519-.16992-.07324-.16016-.31055-.03711-.17968-.67187.27832-.19532-.19434-.72656.09961-.29687.11817.32812Zm.72754,2.26562.082-.14257-.06836-.252-.22363.06055-.0459.16211.10059.1543Zm-.03125-3.92187.11621.209.16016-.07226.06152-.10742-.04492-.168-.168.04492Zm.12793,5.06445.21.00391-.16406-.166Zm.417-5.7207.2666-.01172-.05273-.19531-.16016.07226Zm.07422,4.87109.25195-.06836-.09375-.125-.13965.03907Zm.20605-5.72656.11231-.0293-.03027-.11132-.11231.02929Zm.37793,1.18945.10157.15235.15332-.09961-.01758-.17578-.13965.03711Zm.76172,5.97461-.06543-.13086-.14746.00782.06543.13476Zm.627-7.84765.168-.04492.02636-.125-.23926.002Zm.38671,17.5664.22461-.06054.01856-.1543-.05274-.19727-.09375-.123-.16113.07226-.07324.16992.04492.168Zm.30762,1.14844.22364-.06055-.127-.47656-.16015.07422-.07422.16992.04492.168Zm.2666-.91211.11133-.0293-.02929-.11328-.11231.03125Zm.20215-8.42383.13281-.0664.06153-.10547-.16992-.07422-.16114.07227Zm.19824,9.69727.168-.04492-.05859-.10547-.14649.00976Zm.62207-19.84619.15528.01758.15234-.10059-.22558-.05957Zm.12305,20.27588.15332-.10157-.01758-.17578-.13379-.05273-.01855.1543Zm.39356-20.92432.35058-.03418.0459-.16211-.47949-.1123Zm.01953,10.37354.1123-.0293-.03808-.14063-.11133.03125Zm.37109,10.791.08594.0957.11035-.14843Zm.293-.58984.12695.02734.13184-.06641.01855-.15429-.13379-.05469-.126.09375Zm.13379-20.43408.13965-.03711.02636-.127-.13183.06543Zm.06445,21.40087.10156.15235.16993.07617.168-.04492.08886-.11524.00391-.21093-.16309-.04688-.19531.05274Zm.40528-21.88623-.041-.37988-.19629.05274.11035.2998Zm-.23243,10.44092.127.02539.02636-.12695-.13476-.05274Zm.44532-10.76806-.08594-.09766-.09766.08594Zm-.08594.35253.16015-.07324.02637-.126-.17578.0166Zm.084,21.24561.08887-.11328-.00977-.14649-.13964.03711Zm.35547-21.063.18946.03906.19628-.05273-.08007-.18848-.127-.02539-.125.09278Zm.708-.49023-.01074-.2666-.26758.01171.04492.168.08594.09668Zm-.1875,11.39111.32227-.02734-.07325-.16016-.10547-.0625-.14746.00977Zm.61523-.61523-.081-.18946-.1543-.01758.07227.16016Zm-.09277,11.63476.11719-.123.03906-.18945-.18262-.01172-.01855.15625Zm.0166-21.99463.33594-.08984.06934-.07813-.13868-.293-.168.04492.01661.17578-.08887.11328Zm.11621,11.51807.15332-.09961.24121.11523.10938-.15039-.06543-.13086-.33789-.03125-.11719.1211Zm.75391-11.18115.168-.04493.01855-.15429-.06543-.13379-.16211-.0459.00391.23926Zm.248,21.41162.18847-.07813.07422-.17187-.168.04492Zm.1416-22.08643.20312-.02441.07422-.169-.1748.0166Zm.09082,11.647.17969-.10937.0039-.21094-.18262-.01172-.01855.15625Zm.61914,10.93165.01465-.39258-.168.04492.01855.29492Zm.21289-1.10547.10937.17968.21094.00391-.01172-.26758-.17578.01758Zm.72363.79492.13281-.06445.02637-.127-.13281.06446Zm.35254-22.0835.05371-.13379-.08984-.33593-.15527-.01954-.082.14258.13868.294Zm.10156,1.05274.15528.01855.125-.09375-.1084-.18066-.1416-.083-.04688.16309Zm.1836,9.64013.16015-.07226.05469-.13477-.17578.01758Zm.51367-10.397-.09668-.36426-.19629.05274-.01074.18261.10058.15332Zm.1875,10.65869.1748-.01758.03907-.18945-.16016.07227Zm.21484,9.87305.15528.01953.15234-.10156-.12891-.14649-.13281.06641Zm.89063-10.10938.19629-.05273.082-.14258-.13477-.05273-.124.09375Zm.24121.11524-.19629.05273.14258.082Zm-.18067,9.73828.09376.127.29687.09961L202.209,88.16l-.04492-.168-.19043-.03906-.01074.18164-.15527-.01758Zm.02344-18.27539.16016-.07227.07422-.16992-.168.04492Zm.52735,1.29883.28515-.166-.07226-.16015-.3252-.09375-.02637.127.04493.168Zm.13281,7.43554.0293.11133.15527.01758.06933-.07812-.03027-.11133-.0918-.00586Zm.03613-8.25976.33789.02734.15332-.09961.01074-.18359-.12109-.11719-.28027.07617-.082.14063Zm.40137,18.40039-.05274-.19531-.18359-.01172.07422.16211Zm.51562-1.54688.11133-.02929-.03711-.14063-.1123.0293Zm.68555-7.293.11133-.0293-.08594-.09766-.09766.08594Zm.95508,6.252.01855-.1543-.13476-.05469-.01856.15625Zm.54394-.65625.11231-.0293-.08594-.09765-.09668.08789Zm1.2295-2.127.18652-.20118-.04492-.168-.23926.00391.07324.16016Z" fill="#494263"/><path d="M215.05273,61.97887l.17383.31347.13477.05371.13281-.06543-.04785-.28808.18359.01172.1211.11718.22851.62793.31739.06641.24316.23437.27441.46582.25586.1709.01367.38672-.05371.13379.34375-.06152.16993.07519.01269.38575.06641.13281.30175.00879.63184.79.13867.29394-.00195.33008.11426.08984.19629-.05273.15429.01758.14649.32129.207.21484.17578-.0166.05273.19629.65235.75293.1582.25781.0625.34375.25195-.06738,1.22852,1.561.16992.52344.33789.0293.63379.91211.24317.23437.31152.15625.15332.34961.19531.27539.4502.45117.40918.51953.15332.34961.41308.3086.08789.21679.334.24024.37695.61914.90234,1.01953.626.88086-.0459.16211-.16015.07226.52246.16016.208.21484-.04688.16211.43359.27539.44434.541.39941.37109-.08691.23438.2666-.01172.36914.5918.665.6914.36817.5918-.207.23437-.33593.08985h-.33008l-.13477-.05469-.26269.25-.168.04492-.31738-.06445-.3125-.15625-.21387-.24219.14062-.36914-.22168-.26953-.33593.08984-.376-.61914-.70312-.832-.21192-.45312-.32422-.09375-.07324-.16016-.3623-.23242-.05274-.19531-.18652-.252-.249-.14257-.30957-.03711-1.63281.28906-.26562-.31836-.10938.14844-.1416.36718-.67187.17969L222.794,77.994l.07421-.16992-.15332.09961-.28125-.043-.05371.13281.02637.32227-.55469.05859-.18652-.248-.30859.082-.08887.11328.05273.19531-.54492.207-.18359-.01172-.00391-.23828-.2793.07422-.02441-.20117-.126.0918-.001.33007-.71289.252-.22364-.39063-.1084.26953-.21386.207-.56055.1504-.13672-.17383-.16211-.04492-.13183.06445-.04493.28125-.72753.19531-.1875-.25-.13477-.05273-.124.09179-.0293.33789-.76367.17383-.31739-.06445-.02636.12695-.25684.15821-.37109.07031-.40625-.2793-.082.14063.12207.11718.002.11914-1.34277.36133-.8252.2793-.3164,1.28516-.06153.88671-.29492.01954-.125.09375.09277.125.22657.06054-.23731,1.35156-.28125.40625.21094.45313-.03906.18945-.28321-.16211-.15332.09961-.13574.27735.06445.13281.17579-.01758.13476.05469-.00391.21094-.09668.084-.36523-.02148-.13477-.05274-.1455.12891-.01075.18164-.67382.06055-.44434-.08985.14453-1.0293.13574-.27734.27735-.19336-.22461-.83984.22558-.39063-.083-.30859.18652-.64844.00781-.30273.26758-.01172.1084-.26953-.251-.26172.22266-1.4082.15625-.3125-.11621-.21094.31445-1.40235.08106-.14257.08105-1.041.13672-.27734.11719-.1211-.11817-.32812.17188-1.03711-.0166-.17578.30761-.082.14551-.12891-.04492-.168-.21289-.123-.03418-.34961.28808-1.27734.0127-.51367.36328-.09766-.02539-.32226-.09961-.03516-.168.04492.12891-1.082.09277-.32617.168-.04492.14356-.24805-.23731-.32617.10742-.7207.19922-.71289.40528-.94776-.09376-.125-.13378-.05371.34179-1.41113-.00488-.68946.18359.01172.16016-.07324.0459-.16308-.209-.333.0293-.33887.18555-.64941.11523-.69043-.04883-.40625.29493-.01953.13574-.27637-.30469-.12891.05762-.34472.15332-.10157.291.19141.21094.00488.09668-.08691-.082-.30762.60059-.2207Zm-5.18359,24.42724.28906.07227.17578-.01563.02344-.248-.10058-.15235-.13477-.05469-.13965.03907-.082.14062Zm.26953-1.90234.11231-.0293-.05957-.22461-.11231.0293Zm.43457,1.17383-.00586-.35938-.16211-.04687-.01855.15625.05273.19531Zm-.08594-1.77735.125-.09179-.03027-.11329-.1543-.01757Zm.22461.83985.17969.22265.15332-.10156.07227-.28906-.1543-.01953-.13281.0664Zm.52539-5.541.11231-.0293-.03711-.14062-.1123.03125Zm.24317,4.82617-.10059-.15429-.168.04492.09278.125Zm.26758-1.6914-.01758-.17579-.34766-.17773.03711.14063.14942.10937Zm.19043-7.46094.02832-.33789-.18262-.01172.01953.29492Zm.251,2.8418.1836.01171-.15723-.13867Zm.47266-5.73633-.32227.02734.09375.125.14746-.00976Zm-.10938-1.53125.11719-.1211-.01758-.17578-.18261-.00976Zm.11231.87109.07324.16016.29688.10156.13281-.06641-.24317-.23632-.12695-.0254Zm2.26562-5.76709-.082.14258-.1709.7041-.168.04492.11718.3291-.05664.34571-.27148.22168.24121.11621-.31152,1.52295-.26661.01172.01661.17578.26562.31836-.10059.29687-.0791.71094-.18261.43945-.125.09375.21.334-.22168.6289-.13086,1.416-.30762.082.18652.25-.23925.00391.1289.14453.07813.40039-.125.09375-.14746.00781-.06153.10742.16211.04688.04688.28711-.10059.29687-.05859.67578-.19531.502-.11719.12109.16992.07617-.09863.41406.06738.252-.26367,1.03125-.0127.51367.13867.293,1.56739-.41992.82422-.28125.06738.252.12695.02539.11621-.24023.125-.09375.1543.01953.377-.16211.18262.01172-.001.33007.05762.10352.16211.04687.0752-.16992-.11231-.41992,1.35059-.332,2.77636-.834,1.48536-.27735-.13575.27735.05274.19531.14453-.12891.10156-.29687-.00976-.14844,1.28515-.46484.51953-.07813.12207-.21289-.15527-.46875.04688-.16211-.25586-.17187-.8418-1.123-.457-.47852.0957-.08593-.02637-.32227-.36328.09766-.24316-.23633-.28223-.49414-.34375-.38672.124-.09375.02637-.127-.16211-.04688.00293-.21094-.13379-.05273-.01855.1543-.10449.05859-.21485-.24414-.02636-.32227-.55469-.39062L219.28027,69.246l-.01172-.26758-.51953-.37158-.63964-.81739.08007-.26172-.08007-.18847-.1836-.01075-.27637-.13574-.73242-.94531.3291-.11719-.01074-.14746-.1748.01758-.2295.15137-.46582-.50489-.73242-.94433-.26367-.19922-.30469-.12891-.21093.77735.0166.1748Zm-2.08886,2.05859.07324.16114.15527.01855.19531-.05273.03711-.31055-.18261-.00976-.08985.11328Zm.59277,5.12256.02637-.1289-.083-.30664-.18652.19922-.17774-.10157-.01074.1836.09375.123.16211.04688Zm-.05762-3.79492-.00879-.14844-.16308-.04492-.01074.18164Zm.15528,2.92774.01074-.18164-.16211-.04688.07324.16016Zm-.05957-1.9043.02929.11328.09668-.08789-.09277-.123Zm.6289-2.689.168-.04492-.05762-.10351-.14746.00879Zm.70508,12.26123.125-.09179.04688-.16406-.08594-.09571-.04688.16211Zm2.33594-.68554.1289.14648.21094.002.002-.33008-.22461.06054Zm.68164-12.57276-.3086.083.07422.16113.1543.01758.125-.09277Zm.00781,11.7876-.00879-.14648-.19043-.03907.07227.16016Zm.3457-11.25146.28321.16406.2041-.02441-.10059-.15333-.32519-.09277Zm.292,1.09179.08105.1875.16992.07422.24024-.333-.22364.05957-.16308-.04589Zm.49414,10.12842-.12793-.47656-.168.04492.01953.29492.12109.11719Zm.35254.084.07324.16015.27637.13672.01464-.39453-.2041.02539Zm.60742-10.27295.18457-.31836-.21094-.00293-.14551.1289.002.11719Zm-.10742,1.94873.18847-.07813-.00976-.14844-.23535-.207.01953.29493Zm.168,7.90429.07031-.4082-.21094-.00391-.082.14258.04492.168Zm.92578.32227.03711-.30859-.13477-.05469-.03125.21875Zm.15429-.88086.08008.18945.12695.02539.10547-.05859.0459-.16211-.02441-.20312-.15332.10156Zm.31836-7.43359.36328-.09766-.08007-.18945-.21094-.002-.04688.16211Zm.49414,8.11523.18848-.07812.00391-.21289-.168.04492-.06153.10742Zm.82129-6.33984.083-.47266-.32227.02734.12891.14649-.01074.18164Zm.19922.96679-.1416-.082.08789.2168.20313-.02539.085-.35156-.19727-.06641.05273.19531Zm.18457,4.72071.11231-.0293-.08594-.09766-.125.09375Zm.16406-5.32227.22364-.06055.05371-.13476-.22364.06055Zm.19922.96485.457.02734-.13867-.291-.25781.15821Zm.54395,1.02539.1123-.0293-.03027-.11328-.11231.02929Zm.47558-.57813.13965-.03711-.03027-.11133-.13965.03711Zm1.582,1.76563.15527.01757.05371-.13476-.1543-.01758Zm1.77636,4.05468.12891.14453.126-.09179-.01757-.17578-.13965.03711Zm.50684.4336.13965-.03711-.03028-.11328-.13965.03711Zm.39062-.55469.15528.01953.22363-.06055.15332-.10156-.1084-.17969-.16992-.07617-.01172.1836-.167.04492Zm.39063,1.00586.06445.13281.3086-.084.06054-.10547-.13379-.05469-.13965.03711Zm.57617,1.25586.166-.16406-.10938-.18164-.14844-.10938-.20312.02344.02539.32226.11426.08985Zm.33789-.752.06152-.10547-.00879-.14844-.09374-.125-.1543-.01758-.0625.10547.01758.17578.09375.125Zm.71289.53125.07031-.41016.10059.15234-.04492-.168-.14942-.10937-.17578.01758-.03906.18945.11621.209Z" fill="#494263"/><polygon points="80.86 27.475 34.592 1.127 65.314 64.721 80.86 27.475" fill="#eb5f8e"/><polygon points="80.86 27.475 48.678 104.573 112.991 76.956 80.86 27.475" fill="#fdeb3c"/><polygon points="65.259 64.858 68.972 120.975 36.841 128.687 65.259 64.858" fill="#5eb5d8"/><polygon points="65.257 64.856 1.93 30.671 80.86 27.475 65.257 64.856" fill="#f18832"/><polygon points="112.991 76.956 126.807 45.468 99.608 56.349 112.991 76.956" fill="#e95160"/><polygon points="120.739 59.299 136.447 65.389 126.807 45.468 120.739 59.299" fill="#494263"/></svg>