<?xml version="1.0" encoding="UTF-8" standalone="no"?>
<!-- Created with Inkscape (http://www.inkscape.org/) -->

<svg
   xmlns:dc="http://purl.org/dc/elements/1.1/"
   xmlns:cc="http://creativecommons.org/ns#"
   xmlns:rdf="http://www.w3.org/1999/02/22-rdf-syntax-ns#"
   xmlns:svg="http://www.w3.org/2000/svg"
   xmlns="http://www.w3.org/2000/svg"
   xmlns:sodipodi="http://sodipodi.sourceforge.net/DTD/sodipodi-0.dtd"
   xmlns:inkscape="http://www.inkscape.org/namespaces/inkscape"
   id="svg4136"
   version="1.1"
   inkscape:version="0.91 r13725"
   width="406.875"
   height="584.0625"
   viewBox="0 0 406.875 584.0625"
   sodipodi:docname="Surveyor.svg">
  <metadata
     id="metadata4142">
    <rdf:RDF>
      <cc:Work
         rdf:about="">
        <dc:format>image/svg+xml</dc:format>
        <dc:type
           rdf:resource="http://purl.org/dc/dcmitype/StillImage" />
        <dc:title></dc:title>
      </cc:Work>
    </rdf:RDF>
  </metadata>
  <defs
     id="defs4140" />
  <sodipodi:namedview
     pagecolor="#ffffff"
     bordercolor="#666666"
     borderopacity="1"
     objecttolerance="10"
     gridtolerance="10"
     guidetolerance="10"
     inkscape:pageopacity="0"
     inkscape:pageshadow="2"
     inkscape:window-width="1600"
     inkscape:window-height="837"
     id="namedview4138"
     showgrid="false"
     inkscape:zoom="1.1471375"
     inkscape:cx="203.4375"
     inkscape:cy="292.03125"
     inkscape:window-x="-8"
     inkscape:window-y="-8"
     inkscape:window-maximized="1"
     inkscape:current-layer="svg4136" />
  <path
     style="fill:#000000"
     d="m 251.71875,579.90686 c -2.16432,-0.96852 -6.80957,-1.14624 -20.15625,-0.77115 -21.17169,0.59501 -28.79685,-0.40788 -38.20313,-5.02468 -6.40996,-3.14614 -6.79687,-3.51384 -6.79687,-6.45957 0,-2.59787 0.59166,-3.48947 3.51562,-5.2979 2.92785,-1.81083 5.23977,-2.26001 13.82813,-2.68667 10.94799,-0.54389 17.99223,-2.83627 22.73467,-7.39847 l 2.10965,-2.02949 -1.79877,-3.5259 c -1.75804,-3.44602 -2.36129,-5.91716 -5.18619,-21.24428 -1.34853,-7.3167 -2.79492,-13.88764 -5.57176,-25.3125 -1.42839,-5.87684 -1.70937,-7.18833 -8.52291,-39.77971 -2.31025,-11.05071 -4.58986,-21.38665 -5.06579,-22.96875 -0.47593,-1.5821 -1.58294,-7.09529 -2.46001,-12.25154 -0.87708,-5.15625 -2.36019,-11.90625 -3.29582,-15 -0.93562,-3.09375 -1.89529,-6.89063 -2.13259,-8.4375 -0.71629,-4.66932 -6.19243,-30.30626 -8.61088,-40.3125 -1.24622,-5.15625 -2.70184,-11.90625 -3.2347,-15 -0.87957,-5.10676 -1.68618,-9.02211 -6.18034,-30 -0.77324,-3.60938 -2.27118,-10.99219 -3.32876,-16.40625 -1.05757,-5.41406 -2.75542,-13.14293 -3.77299,-17.17528 -1.01757,-4.03234 -2.08211,-9.09484 -2.36564,-11.25 -0.28352,-2.15515 -1.38063,-7.71534 -2.43801,-12.35597 -1.05739,-4.64063 -2.50125,-10.96875 -3.20859,-14.0625 -1.35081,-5.90819 -5.48278,-25.15144 -6.94493,-32.34375 -1.24767,-6.13722 -3.23823,-14.99543 -6.00406,-26.71875 -1.33814,-5.67188 -3.86114,-16.78042 -5.60667,-24.68565 -1.74553,-7.90522 -3.42766,-14.6271 -3.73806,-14.9375 -1.35087,-1.35087 -2.29085,1.65776 -2.42073,7.74815 -0.077,3.60937 -0.10089,31.03125 -0.0531,60.9375 0.17512,109.73627 -0.92268,293.93378 -1.76422,296.01207 -3.16944,7.8274 -4.10751,13.17969 -3.02154,17.23997 1.41512,5.29102 1.42354,19.126 0.0137,22.5463 -0.59831,1.45154 -1.01271,3.1185 -0.92089,3.70437 0.35387,2.25787 -2.82245,2.1576 -4.96738,-0.15682 -1.68752,-1.82086 -2.3275,-3.90366 -2.82246,-9.18573 -0.6305,-6.72834 -0.47411,-8.38068 1.55084,-16.38569 1.15585,-4.56929 -0.12662,-11.95033 -3.2078,-18.46197 -1.71773,-3.63018 -1.78525,-9.44171 -2.11294,-181.875 -0.18619,-97.96875 -0.6128,-178.81956 -0.94804,-179.66847 -0.62921,-1.59335 -5.34939,-2.78633 -6.99656,-1.76831 -1.17734,0.72763 -3.33643,6.84967 -4.14369,11.74928 -0.3398,2.0625 -1.446,7.33594 -2.45821,11.71875 -5.865129,25.39594 -8.374019,36.45783 -8.930416,39.375 -0.344203,1.80469 -2.252203,9.60938 -4.239998,17.34375 -3.569411,13.88837 -7.798437,31.7877 -10.742775,45.46875 -0.832268,3.86719 -2.916165,12.9375 -4.63088,20.15625 -1.714716,7.21875 -3.987756,16.92188 -5.051201,21.5625 -3.590982,15.67021 -8.735184,37.40979 -12.86667,54.375 -2.260234,9.28125 -4.992027,21.30469 -6.070649,26.71875 -1.078622,5.41406 -2.527543,11.53125 -3.219823,13.59375 -0.692281,2.0625 -2.757391,10.71094 -4.589134,19.21875 -1.831742,8.50781 -4.223747,19.47656 -5.315566,24.375 -1.09182,4.89844 -2.978332,13.54688 -4.192251,19.21875 -1.213919,5.67188 -3.666136,16.21875 -5.44937,23.4375 -4.317226,17.47666 -10.815379,45.1296 -11.565891,49.21875 -0.666268,3.63014 -6.554506,18.54393 -8.050594,20.39063 -1.6360066,2.0194 -5.3189368,1.42513 -5.8100307,-0.9375 -1.9754676,-9.50395 -2.071377,-27.8396 -0.1704633,-32.59046 0.8308861,-2.07659 1.5244744,-5.34911 1.5413075,-7.27227 0.016833,-1.92316 0.8468105,-5.81696 1.8443945,-8.6529 0.997584,-2.83594 1.8275615,-6.46253 1.8443945,-8.05909 0.016833,-1.59656 0.6405683,-4.12781 1.3860775,-5.625 0.74551,-1.49718 2.45913,-8.1776 3.808045,-14.84538 1.348916,-6.66777 2.845321,-12.85707 3.325345,-13.754 0.480024,-0.89694 1.294679,-4.30086 1.810345,-7.56429 0.515665,-3.26341 1.812045,-9.09755 2.880845,-12.96474 1.068799,-3.86719 2.769911,-11.03906 3.780249,-15.9375 1.010338,-4.89844 2.902295,-13.54688 4.204347,-19.21875 1.302054,-5.67188 3.020912,-13.26563 3.819686,-16.875 0.798773,-3.60938 2.651937,-11.20313 4.118141,-16.875 3.1468,-12.17311 6.073784,-24.47394 10.707752,-45 1.862522,-8.25 4.420449,-19.21875 5.684283,-24.375 1.263833,-5.15625 3.380212,-14.4375 4.703065,-20.625 1.322853,-6.1875 3.616119,-16.3125 5.096148,-22.5 1.480028,-6.1875 4.241984,-18 6.13768,-26.25 1.895695,-8.25 5.054294,-21.75 7.01911,-30 1.964815,-8.25 4.268407,-18.375 5.119094,-22.5 1.365256,-6.62016 5.518819,-24.74203 9.438418,-41.17953 1.335274,-5.59969 0.789654,-8.04298 -1.794692,-8.03661 -0.581395,0.002 -2.852,-0.94779 -5.045788,-2.10938 -5.031137,-2.66393 -6.497766,-6.31174 -4.806836,-11.95555 1.166094,-3.89208 3.799774,-6.65378 9.093917,-9.53598 1.583132,-0.86187 4.823786,-4.23687 7.201455,-7.5 2.37766,-3.26312 5.770769,-7.62045 7.540249,-9.68295 1.76946,-2.0625 3.2226,-4.285725 3.22919,-4.940503 0.007,-0.654778 -1.12391,-2.975091 -2.51223,-5.156252 -4.33053,-6.80362 -6.849374,-12.259116 -7.458084,-16.153245 -0.933862,-5.974228 -1.410956,-6.221078 -10.672462,-5.521927 -8.180152,0.61752 -8.202362,0.613161 -9.873824,-1.937814 -2.34129,-3.57326 -2.933427,-12.03435 -1.044011,-14.917963 1.340844,-2.046386 2.320415,-2.298607 11.130787,-2.865953 5.313305,-0.342151 11.769929,-0.527314 14.348054,-0.411472 2.57813,0.115842 6.79688,0.191941 9.375,0.16911 2.57813,-0.02283 25.14844,-0.161784 50.15625,-0.308782 l 45.46875,-0.26727 -0.23795,2.952911 c -0.13086,1.6241 0.10194,2.95291 0.51733,2.95291 0.90239,0 1.20877,6.40953 0.33101,6.924758 -0.33571,0.197057 -6.51664,0.639051 -13.73539,0.982207 -8.78647,0.417681 -13.79228,1.060827 -15.14366,1.945656 -1.24848,0.817449 -5.18039,1.425587 -10.30557,1.593931 -7.97968,0.262107 -8.30631,0.359089 -8.81033,2.615948 -0.28789,1.289062 -1.24023,3.912232 -2.11631,5.829263 -0.87609,1.917033 -1.59288,4.106979 -1.59288,4.866547 0,0.759568 -0.36739,1.608089 -0.81641,1.885603 -0.44903,0.277513 -1.08534,1.84921 -1.41403,3.49266 -0.32869,1.643451 -1.6488,4.366269 -2.93359,6.050708 -1.28478,1.684438 -2.33597,3.778119 -2.33597,4.652628 0,0.87451 1.98147,3.435241 4.40327,5.690531 3.55878,3.31409 4.17253,4.3247 3.20013,5.26942 -1.29849,1.26152 -1.69953,0.87299 -6.05097,-5.86236 -1.74254,-2.697178 -2.69061,-3.28125 -5.32623,-3.28125 -2.99649,0 -3.38155,-0.368184 -5.8829,-5.625 -3.94032,-8.28095 -5.3373,-10.224745 -6.50744,-9.054608 -0.69444,0.694444 -0.53976,1.676113 0.51867,3.291477 2.04511,3.121234 11.21682,21.319501 14.24428,28.263131 5.07868,11.6482 6.58903,14.50251 7.68147,14.51667 1.37931,0.0179 0.4079,-2.42152 -6.7401,-16.92582 -5.43753,-11.03351 -6.02643,-13.0596 -3.7959,-13.0596 1.52024,0 2.16467,0.65616 5.98479,6.09375 l 2.63452,3.75 9.77133,0.0672 c 11.84796,0.0816 16.92271,1.51972 20.8759,5.91621 8.92445,9.9253 10.92668,11.31982 10.92668,7.61032 0,-1.03125 0.52734,-1.91852 1.17187,-1.97171 8.05132,-0.66445 10.94064,-0.20177 17.57813,2.81487 4.86802,2.21244 9.19448,3.41239 14.0625,3.90023 3.86719,0.38756 7.72607,0.98385 8.57529,1.32511 1.01677,0.40859 2.41167,-0.28152 4.08471,-2.02088 3.32925,-3.4612 7.965,-10.62243 7.965,-12.30418 0,-0.72984 -1.67168,-3.32363 -3.71486,-5.76397 l -3.71486,-4.437 -9.64452,0.3302 c -5.30448,0.1816 -12.64773,0.58215 -16.31833,0.8901 -6.78976,0.56963 -10.68722,-0.42463 -10.65287,-2.71763 0.0177,-1.18083 4.0194,-7.666693 7.49531,-12.148155 1.09709,-1.414471 1.85952,-3.523846 1.69429,-4.6875 -0.27305,-1.923091 -0.97217,-2.17662 -7.67803,-2.784416 -7.0954,-0.643104 -11.84113,-2.485567 -11.84113,-4.597154 0,-0.658562 1.53189,-0.793171 4.45357,-0.391339 4.16399,0.572694 4.71259,0.390794 8.4375,-2.797581 C 209.52651,73.384188 210,72.512038 210,69.050823 c 0,-3.867472 2.32893,-8.48144 6.76601,-13.404536 1.49479,-1.658511 1.61453,-2.325439 0.68481,-3.814162 -0.94133,-1.507297 -0.72144,-2.446244 1.33622,-5.705781 2.95543,-4.681699 3.04995,-6.178115 0.58796,-9.308027 -1.03125,-1.311023 -1.875,-3.75821 -1.875,-5.438195 0,-2.969635 -1.23518,-4.192622 -4.2344,-4.192622 -2.97069,0 -6.0337,-1.837362 -5.47784,-3.285911 0.9169,-2.389386 5.26796,-4.09442 14.52531,-5.691976 9.654,-1.666007 10.66808,-2.181214 15.57363,-7.912244 3.75408,-4.3858095 9.43217,-7.4323892 13.91159,-7.4642796 3.66829,-0.026116 14.14997,3.3868727 17.30839,5.6358696 1.32393,0.9427235 5.53846,3.285538 9.36561,5.206253 8.81668,4.424782 18.65153,11.553937 22.00598,15.951846 2.46881,3.236782 2.56801,3.75761 2.03422,10.679732 -0.30864,4.002353 -1.26362,9.032606 -2.12217,11.178339 l -1.561,3.901333 3.78385,8.259964 c 3.67552,8.0235 4.28265,10.03808 4.05728,13.462949 -0.18809,2.858513 -5.48409,2.117031 -8.37005,-1.171875 -1.35736,-1.546875 -2.90133,-2.812488 -3.43104,-2.812473 -0.52971,1.6e-5 -2.09974,1.424559 -3.48896,3.165651 -2.28936,2.869224 -2.42943,3.479804 -1.49601,6.521176 0.71435,2.327559 1.81169,3.628105 3.58192,4.245209 1.40363,0.48931 3.93392,2.609188 5.62285,4.71084 1.68894,2.101647 3.9559,4.101288 5.03769,4.443625 1.0818,0.342347 5.88006,2.48731 10.66282,4.766582 9.09052,4.33218 18.81527,12.00881 22.90932,18.08439 2.43785,3.61776 7.35987,15.79609 9.17863,22.71023 0.64078,2.43595 2.54854,6.57642 4.23949,9.20103 1.69095,2.62463 4.00257,7.38159 5.13695,10.57102 1.13436,3.18943 2.82563,7.69741 3.75836,10.01772 0.93274,2.32031 2.13767,6.62686 2.67764,9.5701 1.14075,6.218 2.8966,9.71308 9.96493,19.83567 3.03701,4.34929 5.90238,9.81225 6.98487,13.31692 1.00948,3.26833 3.98293,10.27929 6.60766,15.57993 2.62473,5.30063 5.806,13.01896 7.06948,17.15182 1.26347,4.13287 3.74215,11.81455 5.50815,17.07039 1.766,5.25585 3.6837,13.44447 4.26154,18.19693 0.57785,4.75247 1.26662,8.99033 1.53062,9.41749 1.06381,1.72128 -3.22152,8.99272 -6.49035,11.01297 -1.84867,1.14255 -5.59368,4.89912 -8.32222,8.34795 -2.72854,3.44883 -11.92193,13.70647 -20.42974,22.79478 -9.6326,10.28984 -16.30565,18.25021 -17.68694,21.099 -1.22,2.51613 -3.01297,6.1088 -3.98438,7.98369 -0.9714,1.8749 -1.76618,4.44866 -1.76618,5.71948 0,3.56353 -1.90989,8.21538 -3.37297,8.21538 -0.72299,0 -1.31453,0.36386 -1.31453,0.80859 0,0.44473 -1.29289,2.43548 -2.87309,4.42391 l -2.87309,3.61531 0.63549,9.40422 c 0.68296,10.1068 1.71159,14.8071 5.64842,25.81047 2.68574,7.50663 5.95157,26.29837 5.99714,34.50789 0.0383,6.90619 1.61494,20.48835 4.40897,37.98259 1.89818,11.88504 2.17637,15.61273 1.39928,18.75 -0.64871,2.61895 -0.66594,5.46817 -0.052,8.60327 0.50483,2.57812 1.00446,9.53906 1.11028,15.46875 0.23351,13.08491 -0.61873,14.87859 -8.46392,17.81385 -4.66105,1.74393 -5.73935,1.82866 -10.29558,0.80902 -4.75285,-1.06365 -5.24077,-1.43792 -7.38135,-5.66215 -1.26066,-2.48777 -2.70564,-4.52322 -3.21111,-4.52322 -1.4541,0 -8.42134,-6.64273 -9.75909,-9.30455 -0.66731,-1.32781 -1.45507,-3.98287 -1.75055,-5.90013 -0.46767,-3.03454 -0.18196,-3.7849 2.20644,-5.7946 1.50902,-1.26976 3.58971,-2.57718 4.62374,-2.90537 2.12674,-0.675 2.25226,-1.60551 0.97849,-7.25377 -0.49588,-2.1988 -1.82147,-9.27127 -2.94579,-15.71658 -1.12432,-6.44531 -3.63305,-16.35938 -5.57495,-22.03125 -10.4472,-30.51398 -11.45916,-33.75162 -13.03982,-41.71875 -1.57965,-7.96209 -7.02107,-18.25988 -10.83894,-20.51247 -3.64242,-2.14908 -4.95116,-5.6846 -3.38042,-9.13202 1.47883,-3.24567 1.39672,-10.00114 -0.11539,-9.49281 -0.70579,0.23727 -1.17187,2.07379 -1.17187,4.61762 0,4.98322 -1.10045,6.52512 -7.0397,9.86374 -2.50825,1.40996 -5.15109,3.82421 -6.08534,5.559 -0.9083,1.68663 -4.37497,5.69626 -7.70371,8.9103 -6.88364,6.64644 -6.6762,4.70936 -2.29615,21.44085 1.5529,5.93201 3.10713,13.52576 3.45382,16.875 0.3467,3.34925 1.01583,7.62473 1.48696,9.50109 0.47113,1.87635 1.07197,12.8451 1.33521,24.375 0.45661,19.99918 1.36551,30.14807 3.34668,37.3697 2.91803,10.63663 4.85404,31.96591 3.63221,40.01682 -0.79319,5.22656 -1.2892,5.68531 -7.40026,6.84425 -6.71057,1.27263 -12.12807,1.13609 -15.54222,-0.39171 z M 10.358345,556.15882 c 0.616074,-1.92642 1.91191,-4.97913 2.879635,-6.78382 0.967725,-1.80469 2.364666,-6.02344 3.104314,-9.375 0.739647,-3.35156 1.769489,-7.78125 2.288536,-9.84375 0.519047,-2.0625 2.255718,-9.44531 3.859268,-16.40625 1.603552,-6.96094 3.541971,-14.97656 4.3076,-17.8125 1.597337,-5.91664 6.499259,-27.55358 8.28336,-36.5625 0.663734,-3.35156 1.642583,-7.14844 2.175222,-8.4375 0.532639,-1.28906 1.454706,-5.08594 2.049037,-8.4375 0.594331,-3.35156 2.066506,-10.3125 3.271499,-15.46875 1.204992,-5.15625 3.137715,-13.59375 4.294937,-18.75 1.157224,-5.15625 3.107926,-13.04033 4.334895,-17.52016 1.226969,-4.47984 2.230852,-8.93725 2.230852,-9.90536 0,-1.7396 3.684565,-18.28059 9.344402,-41.94948 1.602888,-6.70313 4.592009,-19.35938 6.642492,-28.125 5.403149,-23.09797 9.156493,-39.01456 11.716972,-49.6875 1.237003,-5.15625 3.535717,-15.07031 5.108253,-22.03125 1.572537,-6.96094 4.784234,-20.88281 7.137106,-30.9375 2.352875,-10.05469 5.544753,-23.76563 7.093065,-30.46875 1.54831,-6.70313 3.62063,-15.63725 4.60516,-19.85362 2.55971,-10.96228 2.5076,-11.26659 -2.06131,-12.03851 -2.73518,-0.4621 -4.189718,-0.2822 -5.018834,0.62073 -1.3497,1.46986 -3.747281,10.55434 -6.150031,23.30265 -0.923238,4.89844 -2.777311,13.54687 -4.120159,19.21875 -2.815244,11.89092 -6.941884,30.8833 -8.046102,37.03125 -0.416745,2.32031 -1.192758,5.27344 -1.724475,6.5625 -2.100504,5.09235 -4.865793,15.45096 -9.510297,35.625 -2.670932,11.60156 -5.420788,23.20312 -6.110792,25.78125 -1.111665,4.15362 -3.204684,13.54771 -6.266299,28.125 -0.541475,2.57812 -1.742455,7.42969 -2.668844,10.78125 -0.926391,3.35156 -2.176665,8.625 -2.77839,11.71875 -0.601723,3.09375 -2.515934,11.32031 -4.253803,18.28125 -1.737869,6.96094 -4.054568,16.875 -5.148221,22.03125 -1.926876,9.08465 -3.406462,15.58052 -9.395647,41.25 -1.563969,6.70312 -3.251726,14.08594 -3.75057,16.40625 -0.498844,2.32031 -2.761987,12.02344 -5.029205,21.5625 -2.267218,9.53906 -4.836009,20.71875 -5.708422,24.84375 -0.872413,4.125 -2.165474,9.26939 -2.873468,11.43199 -0.707994,2.16259 -1.713935,6.38134 -2.235424,9.375 -0.521489,2.99365 -1.848486,8.39613 -2.9488831,12.00551 -1.5415037,5.05624 -2.0408697,9.35985 -2.1756413,18.75 -0.279756,19.49188 0.6288247,23.88067 3.2482124,15.69007 z M 234.3083,539.76562 c -0.14717,-12.92798 -2.22362,-24.57923 -6.892,-38.67187 -4.66473,-14.08169 -6.16833,-20.00257 -7.14227,-28.125 -1.08435,-9.04325 -6.67924,-34.77341 -9.07154,-41.71875 -0.79922,-2.32031 -2.18625,-5.0625 -3.08227,-6.09375 -1.2409,-1.42818 -1.75795,-4.29267 -2.16968,-12.02033 -0.2973,-5.57992 -0.15351,-11.16327 0.31952,-12.40744 0.60752,-1.59789 0.17064,-5.63858 -1.48784,-13.76093 -1.29135,-6.32433 -2.72654,-13.60818 -3.18932,-16.1863 -0.46277,-2.57813 -2.09267,-10.17188 -3.62198,-16.875 -2.85702,-12.52255 -5.53659,-25.26227 -8.08466,-38.4375 -0.79777,-4.125 -2.29488,-11.29688 -3.32692,-15.9375 -1.03203,-4.64063 -2.73046,-12.86719 -3.77427,-18.28125 -1.04381,-5.41406 -2.34768,-11.24793 -2.89748,-12.96413 -0.54978,-1.71622 -1.55515,-6.35684 -2.23413,-10.3125 -0.67899,-3.95567 -1.9388,-10.14525 -2.79959,-13.75462 -0.86079,-3.60938 -2.12375,-9.30469 -2.80657,-12.65625 -1.59798,-7.84343 -3.47816,-16.85629 -7.04066,-33.75 -2.83481,-13.44294 -6.27372,-29.99213 -9.25215,-44.52436 -1.70698,-8.32862 -2.04064,-8.60487 -9.11191,-7.54447 -3.97696,0.59638 -4.06224,0.68292 -3.55301,3.60556 0.28696,1.64699 0.85605,4.26015 1.26466,5.80702 0.40859,1.54688 1.26667,5.34375 1.90683,8.4375 0.64017,3.09375 2.13562,9.84375 3.32322,15 1.18761,5.15625 2.84934,13.17188 3.69275,17.8125 1.7307,9.52275 2.51851,13.35308 5.17319,25.15215 1.02426,4.55243 1.86228,9.42508 1.86228,10.82813 0,1.40303 0.36607,2.95175 0.81347,3.4416 0.44741,0.48984 1.53398,4.26562 2.41461,8.39062 2.32238,10.87845 3.01111,14.03742 5.10995,23.4375 1.99338,8.92778 4.10518,19.17548 6.18227,30 0.69259,3.60938 2.20328,10.35938 3.35709,15 1.15382,4.64063 2.17165,9.28125 2.26185,10.3125 0.0902,1.03125 0.39359,2.50781 0.67419,3.28125 0.47717,1.31526 4.73265,20.23399 6.43173,28.59375 0.41919,2.0625 1.66738,7.75781 2.77373,12.65625 1.10636,4.89844 2.21479,9.96094 2.46318,11.25 0.24838,1.28906 1.24344,5.71875 2.21125,9.84375 0.96781,4.125 3.26878,14.88281 5.11327,23.90625 1.84449,9.02344 3.76751,18.09375 4.27337,20.15625 0.50586,2.0625 1.94732,8.8125 3.20324,15 3.73009,18.37695 7.04483,34.03141 9.52848,45 1.2843,5.67187 3.5355,16.42969 5.00266,23.90625 4.46179,22.73679 6.74307,29.0625 10.48098,29.0625 1.54986,0 1.75898,-0.72057 1.70048,-5.85938 z M 131.6438,515.58494 c 1.21615,-4.09524 1.4871,-29.05748 2.02577,-186.63581 l 0.62183,-181.90826 -2.69258,0.30769 -2.69257,0.30769 -0.18847,63.75 c -0.10366,35.0625 -0.20912,82.41797 -0.23437,105.23437 -0.0291,26.22455 -0.38137,41.48438 -0.95784,41.48438 -0.58454,0 -0.92039,-32.87877 -0.93547,-91.57882 -0.0214,-83.31615 -0.44671,-118.21529 -1.45294,-119.22151 -0.20284,-0.20284 -0.99036,-0.13029 -1.75005,0.16124 -1.21202,0.46509 -1.3303,22.48089 -0.96543,179.68429 0.3403,146.61317 0.6433,179.70092 1.66816,182.1639 l 1.25233,3.00965 0.5549,-4.6875 c 0.3052,-2.57813 0.55477,-12.07031 0.55459,-21.09375 -9.4e-4,-52.87237 0.16491,-62.8125 1.04834,-62.8125 0.6127,0 0.9375,16.51042 0.9375,47.65625 0,41.77825 0.22244,48.90625 1.52618,48.90625 0.1519,0 0.90795,-2.1274 1.68012,-4.72756 z m -4.90212,-123.00682 c 0.12717,-28.84091 0.67235,-37.65659 1.69582,-27.42187 0.81568,8.15682 0.006,57.65625 -0.9431,57.65625 -0.54081,0 -0.83409,-11.77983 -0.75272,-30.23438 z m 85.95555,-0.30076 c 1.04271,-1.32559 2.53788,-4.59512 3.32263,-7.26563 0.78473,-2.67051 2.95086,-6.75392 4.81361,-9.07423 4.04657,-5.04056 19.14369,-31.70808 19.15711,-33.83907 0.0132,-2.09703 -2.9352,-4.52719 -6.78095,-5.58906 l -3.26213,-0.90071 3.4701,-9.77137 c 4.30454,-12.12102 5.60321,-14.12807 10.06482,-15.55483 1.95185,-0.62417 4.86425,-1.92744 6.47198,-2.89616 1.60774,-0.96872 3.98187,-1.7613 5.27584,-1.7613 4.10456,0 4.65592,-1.83366 5.14468,-17.10962 0.38759,-12.11397 0.14408,-15.93771 -1.59503,-25.04586 -1.75299,-9.18081 -1.95724,-12.47087 -1.3999,-22.54842 0.63584,-11.49695 0.58971,-11.92322 -1.80122,-16.64148 -1.71863,-3.39157 -2.45377,-6.31435 -2.45377,-9.7558 0,-4.38845 -0.3655,-5.28783 -3.42037,-8.41629 -3.25523,-3.33366 -3.4538,-3.90629 -4.11261,-11.8596 -0.55736,-6.72861 -1.30656,-9.59407 -3.84525,-14.70698 -1.73416,-3.49258 -3.99677,-6.69478 -5.02802,-7.11599 -10.45306,-4.26955 -19.41383,-7.44513 -22.5,-7.9737 -2.0625,-0.35325 -5.22656,-1.37194 -7.03125,-2.26376 -1.80469,-0.89183 -4.96875,-1.92814 -7.03125,-2.30293 -6.27962,-1.14111 -9.66249,-2.95118 -10.00252,-5.35201 -0.20896,-1.47545 -1.03643,-2.29155 -2.53892,-2.50405 -2.12123,-0.30002 -2.20013,-0.56054 -1.63244,-5.39063 l 0.59651,-5.07538 -4.21348,0 c -2.31742,0 -6.11776,-0.50932 -8.4452,-1.13181 -3.66002,-0.97891 -4.94584,-0.88907 -9.51769,0.66494 -8.16518,2.77544 -7.99842,2.15802 -4.86078,17.99679 1.51189,7.63198 3.32766,16.19664 4.03504,19.03258 2.07835,8.33218 4.06045,17.72218 5.541,26.25 0.76092,4.38281 2.19979,11.13281 3.19748,15 2.4207,9.38295 3.57407,14.70456 7.11156,32.8125 1.21052,6.19647 6.74845,32.29455 9.05151,42.65625 0.45843,2.0625 1.28115,6.49219 1.82827,9.84375 1.08944,6.67371 2.88613,15.15523 5.65996,26.71875 2.52444,10.52379 5.71553,26.23942 6.56747,32.34375 0.39581,2.83594 1.83333,10.00781 3.19451,15.9375 1.36119,5.92969 2.67622,11.73047 2.9223,12.89062 0.58312,2.74931 1.7133,2.6653 4.0464,-0.30076 z m 81.90964,-9.75668 c 3.22404,-1.53549 7.50928,-4.31607 9.52279,-6.17904 2.0135,-1.86298 6.44318,-5.48187 9.84375,-8.04198 13.47169,-10.14213 20.28039,-15.54799 25.62538,-20.3456 7.4397,-6.6778 8.17972,-7.3152 11.72933,-10.10288 1.67579,-1.31607 3.04688,-2.76399 3.04688,-3.2176 0,-1.25008 -2.93772,0.0812 -6.15715,2.79021 -1.58175,1.33098 -4.94781,4.10746 -7.48013,6.16996 -2.53233,2.0625 -7.14441,5.85937 -10.2491,8.4375 -9.4801,7.87227 -18.8377,14.47523 -28.61362,20.19048 -8.75002,5.11548 -14.0625,9.3827 -14.0625,11.29562 0,2.28539 -0.13993,2.30591 6.79437,-0.99667 z m -5.4648,-64.33973 c 2.85034,-1.09378 1.44835,-2.24345 -2.73582,-2.24345 -3.93693,0 -5.0834,0.69786 -3.59375,2.1875 0.78055,0.78055 4.35888,0.81217 6.32957,0.056 z m -16.34237,-1.54033 c -0.0376,-3.4377 -1.36096,-5.27757 -4.75511,-6.61083 -4.72574,-1.85633 -4.79044,-0.47545 -0.19807,4.22756 3.62253,3.70982 4.97477,4.36046 4.95318,2.38328 z m 27.85539,-16.18289 c 1.47135,-11.03215 3.00573,-23.3836 4.13308,-33.27023 0.49976,-4.38281 1.49236,-10.28906 2.20577,-13.125 0.71342,-2.83594 1.5031,-7.47656 1.75487,-10.3125 0.25175,-2.83594 0.74367,-6.84398 1.09314,-8.90675 0.7926,-4.67843 -0.91524,-17.42783 -2.83072,-21.13198 -1.73465,-3.35444 -5.13623,-3.84334 -5.13623,-0.73821 0,1.11955 0.72624,2.83804 1.61387,3.81886 2.58281,2.85397 2.70167,12.92765 0.28367,24.04199 -1.19706,5.50228 -1.80213,10.59127 -1.44994,12.19478 0.33243,1.51356 0.13586,4.492 -0.43682,6.61878 -0.57268,2.12678 -1.4428,7.33005 -1.9336,11.56282 -1.04215,8.98774 -1.55094,11.96098 -2.92122,17.07096 -1.01901,3.79998 -1.78021,19.05572 -1.02002,20.44253 0.22763,0.41527 1.11283,0.62125 1.9671,0.45774 1.20318,-0.2303 1.80647,-2.19624 2.67705,-8.72379 z m 1.1109,-120.34804 c -0.56907,-4.95877 -1.62111,-11.31942 -2.33784,-14.13478 -0.71673,-2.81536 -1.36899,-10.40911 -1.44947,-16.875 l -0.14631,-11.75616 -0.66998,10.78125 c -0.36848,5.92969 -0.97121,11.90167 -1.33939,13.27107 -0.43878,1.63195 -0.17863,3.24704 0.75506,4.6875 0.94909,1.46424 1.42817,4.54426 1.43549,9.22893 0.0226,14.45748 0.10534,15.79711 1.13723,18.4149 l 1.05597,2.67885 1.29696,-3.64031 c 1.05194,-2.95257 1.1015,-5.34363 0.26228,-12.65625 z m -62.33913,-28.15213 c -0.14895,-14.65197 -0.97558,-19.97611 -2.34024,-15.07311 -1.2535,4.50357 -0.87648,20.14102 0.60595,25.13289 0.79341,2.67171 1.54233,4.85766 1.66426,4.85766 0.12193,0 0.15345,-6.71285 0.07,-14.91744 z m -43.27957,-12.34169 c 4.54305,-12.71686 5.17337,-15.86587 3.17579,-15.86587 -1.91881,0 -5.26058,3.29795 -5.26058,5.19159 0,0.79288 -1.49728,5.31854 -3.32729,10.05704 -3.12359,8.088 -3.22635,8.68925 -1.67853,9.82105 0.90681,0.66307 2.08768,1.0622 2.62416,0.88695 0.53647,-0.17526 2.54638,-4.7161 4.46645,-10.09076 z m -53.9495,3.77642 c 15.51378,-2.07889 18.87047,-5.20782 4.28658,-3.99573 -15.87462,1.31936 -41.08822,0.83954 -49.17922,-0.93591 -9.097563,-1.99631 -11.689047,-2.07282 -10.219138,-0.30169 1.882603,2.26841 8.86865,4.32818 17.487998,5.1562 12.20133,1.17211 29.19248,1.20695 37.62378,0.0772 z m -2.74467,-6.17069 c 1.16016,-0.3109 2.10938,-1.00383 2.10938,-1.53981 0,-0.6586 -4.60958,-0.77502 -14.21839,-0.35912 -7.82011,0.33848 -16.78495,0.21849 -19.92187,-0.26664 -15.182211,-2.34796 -20.425583,-2.99019 -20.860703,-2.55507 -1.35496,1.35496 4.934338,3.40625 12.813463,4.17918 10.31389,1.01177 36.97891,1.37202 40.07812,0.54146 z M 150,135.55652 c 0,-0.85444 -0.6562,-1.14688 -1.86445,-0.83092 -1.02546,0.26817 -1.63337,0.86148 -1.35093,1.31848 0.81858,1.32449 3.21538,0.96105 3.21538,-0.48756 z m 0.4106,-4.40462 c 0.30333,-0.30333 -0.0925,-2.09285 -0.87962,-3.97671 -1.35986,-3.2546 -1.65229,-3.4259 -5.87169,-3.43954 -5.4539,-0.0176 -7.03969,-0.93622 -6.63072,-3.84091 0.21189,-1.50485 -0.1457,-2.23849 -1.09107,-2.23849 -0.86999,0 -1.585,1.17597 -1.875,3.08377 -0.5377,3.53737 -2.19218,4.12118 -2.65751,0.93774 -0.55327,-3.78507 -2.02999,-4.15923 -2.02999,-0.51434 0,5.56491 -1.85573,5.19454 -2.02911,-0.40496 -0.38649,-12.48207 -0.28537,-14.20244 0.85723,-14.58493 0.82411,-0.27586 1.17188,0.88288 1.17188,3.9046 0,5.6176 1.47026,5.52027 2.3604,-0.15625 0.73946,-4.71565 0.89162,-4.63744 1.82406,0.9375 0.56468,3.37617 0.73623,3.51562 4.32495,3.51562 4.83145,0 5.38254,-1.53665 2.59369,-7.2322 l -2.19685,-4.48655 -5.58593,-0.28699 c -8.47559,-0.43545 -9.61289,0.11006 -12.25016,5.8757 -2.75572,6.02464 -2.85154,7.03526 -0.67953,7.1672 4.2257,0.25667 4.91412,0.43153 5.14416,1.30659 0.13555,0.51562 -1.2301,1.05138 -3.03479,1.19057 -6.42432,0.49549 -7.04607,0.92476 -9.85671,6.80529 -2.31721,4.84817 -2.52215,5.84561 -1.35805,6.60953 1.45401,0.95416 38.78573,0.79239 39.75036,-0.17224 z m -46.53146,-3.88627 c 1.01452,-1.67579 2.15237,-4.06015 2.52857,-5.2986 0.67553,-2.22384 0.62172,-2.24509 -4.34623,-1.71654 -2.766627,0.29434 -7.476646,1.47953 -10.46671,2.63375 -4.459417,1.72141 -5.386116,2.45006 -5.15625,4.05426 0.318867,2.22534 3.1658,3.08945 10.750643,3.26308 4.512997,0.10331 4.971967,-0.0981 6.689977,-2.93596 z m 63.46461,0.98456 c 1.19511,-1.12259 -3.62125,-5.43769 -6.06936,-5.43769 -0.96032,0 -2.48025,-0.28175 -3.37762,-0.6261 -1.41536,-0.54312 -1.54902,-0.2133 -1.00861,2.48878 0.92452,4.6226 2.08813,5.57839 6.06052,4.97811 1.90167,-0.28737 3.87944,-0.91876 4.39507,-1.4031 z m -54.68179,-10.82831 c 1.75649,-2.96485 4.60181,-8.97657 6.32294,-13.35938 1.72113,-4.382813 4.36182,-10.247288 5.8682,-13.032165 1.50638,-2.784878 2.50093,-5.683493 2.21011,-6.441366 -0.65146,-1.697679 -3.25534,3.103168 -8.90948,16.426661 -2.24288,5.28515 -4.39543,9.60937 -4.78344,9.60937 -0.38801,0 -0.98648,1.66321 -1.32992,3.69603 -0.34344,2.03282 -1.22428,4.19385 -1.9574,4.8023 -1.18598,0.98427 -1.89996,3.68917 -0.9738,3.68917 0.19755,0 1.79631,-2.42578 3.55279,-5.39062 z m -4.62754,-1.40625 c 1.86081,-1.43674 7.27808,-12.0483 7.27808,-14.25661 0,-0.88152 -0.51299,-1.43177 -1.13998,-1.22278 -1.5057,0.5019 -11.90596,13.97337 -11.95043,15.47939 -0.019,0.64453 0.93946,1.17187 2.12998,1.17187 1.19051,0 2.84756,-0.52734 3.68235,-1.17187 z m 148.48935,-5.37687 c 1.21343,-1.81225 2.89501,-4.24423 3.73683,-5.40438 1.97213,-2.71787 0.005,-2.83273 -2.2229,-0.12976 -0.89729,1.08879 -2.07059,2.45988 -2.60731,3.04687 -3.79728,4.1529 -5.89841,9.75392 -2.64663,7.05519 0.84356,-0.7001 2.52656,-2.75566 3.74001,-4.56792 z m -150.53881,-3.50709 c 3.64491,-4.62265 5.27892,-7.387464 4.51624,-7.641686 -0.65727,-0.219093 -1.63658,0.344288 -2.17624,1.251956 -0.53967,0.90767 -2.49311,3.60815 -4.34098,6.00106 -3.15794,4.08936 -5.075105,7.632 -4.130227,7.632 0.230957,0 2.989997,-3.2595 6.131207,-7.24333 z M 135,97.96875 c -0.70053,-1.401056 -8.26001,-1.285378 -10.10922,0.154688 -1.38355,1.07745 -0.75399,1.22039 4.48422,1.018125 3.67897,-0.142069 5.90799,-0.606816 5.625,-1.172813 z m -17.411,-1.297444 c 0.28169,-0.455784 -0.77603,-1.36229 -2.35051,-2.014462 -3.71771,-1.539926 -11.13696,-10.649622 -11.30714,-13.883408 -0.0721,-1.370703 -0.2214,-4.027967 -0.33172,-5.905032 -0.11032,-1.877065 -1.19018,-4.802601 -2.39967,-6.50119 -1.511469,-2.12265 -2.322416,-4.79311 -2.593457,-8.540279 -0.397978,-5.501959 -1.428431,-6.993342 -2.49975,-3.617916 -0.728962,2.296767 0.290438,8.33959 1.825678,10.822231 0.637706,1.03125 1.430785,3.773438 1.762378,6.09375 1.274171,8.915779 1.920631,10.757288 5.381541,15.329938 1.96309,2.593697 5.17477,5.687734 7.13708,6.875631 3.94364,2.387334 4.62389,2.556994 5.37557,1.340737 z m 27.36627,-1.763784 c 1.68529,-1.106522 6.53511,-9.66192 8.36209,-14.751272 0.9255,-2.578125 2.45615,-5.55844 3.40143,-6.622923 1.3421,-1.51132 1.71591,-3.462916 1.70591,-8.90625 -0.007,-3.833955 -0.26718,-7.920046 -0.5781,-9.080202 -1.02248,-3.815403 -2.2216,-2.203785 -2.2216,2.985844 0,2.802371 -0.41143,6.177371 -0.9143,7.5 -0.82916,2.180865 -1.39656,2.404781 -6.09375,2.404781 -2.84869,0 -5.17945,0.421875 -5.17945,0.9375 0,0.515625 0.80925,0.9375 1.79832,0.9375 2.73074,0 4.76418,1.000358 4.76418,2.34375 0,0.663105 0.65366,1.456481 1.45259,1.763058 1.23951,0.475642 1.10198,1.155683 -0.9375,4.635793 -1.31455,2.24311 -2.39009,4.804496 -2.39009,5.691969 0,0.887472 -0.37767,1.380175 -0.83927,1.094893 -0.78272,-0.483749 -1.4957,0.543118 -1.91063,2.751787 -0.0969,0.515625 -1.03854,1.855489 -2.09259,2.977474 -2.4938,2.654538 -1.20471,5.225595 1.67277,3.336298 z m -11.50064,-0.932438 c 0.59248,-0.958625 -1.90601,-6.787584 -2.90938,-6.787584 -2.31184,0 -4.13015,5.165095 -2.42025,6.874997 0.85531,0.855319 4.78685,0.790837 5.32963,-0.08737 z M 120.9375,90.9375 c 1.06199,-1.984351 0.37888,-2.383169 -1.76074,-1.02796 -0.71058,0.45008 -1.00209,1.287371 -0.64779,1.860645 0.89381,1.446212 1.25589,1.321031 2.40853,-0.832685 z m -3.29955,-3.984375 c 4.25992,-5.208188 4.80192,-5.904247 5.58833,-7.176679 0.4637,-0.75029 0.25618,-1.557686 -0.52804,-2.054406 -1.83136,-1.159963 -16.76074,-1.070287 -16.76074,0.100677 0,2.06525 4.09728,9.501704 5.95027,10.79959 2.67746,1.875369 2.90502,1.809311 5.75018,-1.669182 z m 28.09839,-3.565853 c 1.82938,-3.121375 3.32616,-5.885677 3.32616,-6.142892 0,-0.626956 -10.39718,-0.224695 -12.40029,0.479761 -1.43173,0.503507 -1.34942,1.075774 0.85531,5.947734 1.34169,2.964844 2.99142,5.390625 3.66605,5.390625 0.67464,0 2.72338,-2.553852 4.55277,-5.675227 z m -13.78277,-4.402897 c 0.24497,-0.735774 -0.51109,-1.171875 -2.0317,-1.171875 -2.36611,0 -3.08275,0.901623 -1.76446,2.219909 0.96447,0.964477 3.34488,0.307299 3.79616,-1.048034 z m 8.67143,-4.816718 6.09375,-0.613184 -4.43843,-0.738724 c -7.78016,-1.294922 -30.24416,-0.262211 -29.25102,1.344724 0.58232,0.942214 18.25775,0.946816 27.5957,0.0072 z m -1.08934,-6.363038 c 0.65038,-1.162166 2.41034,-1.632979 6.77049,-1.811192 4.33449,-0.177165 6.12156,-0.651643 6.76155,-1.795232 0.98572,-1.761397 0.0782,-9.506486 -1.20699,-10.300775 -1.20196,-0.742854 -48.40465,0.63107 -49.72543,1.447353 -0.76546,0.47308 -0.89502,2.407488 -0.42976,6.416247 l 0.66608,5.73898 8.75887,0 c 4.82798,0 9.0189,0.420741 9.33828,0.9375 0.31972,0.517318 4.52545,0.9375 9.38375,0.9375 7.26028,0 8.95846,-0.275404 9.68316,-1.570381 z M 93.75,61.907985 C 93.75,55.473123 92.66567,54.375 86.311632,54.375 81.322286,54.375 78.75,56.862537 78.75,61.6875 c 0,4.971127 1.248489,5.8125 8.625,5.8125 l 6.375,0 0,-5.592015 z m 74.48865,2.779515 4.02279,0 0.47851,-4.921875 c 0.30414,-3.128326 0.0914,-5.181272 -0.58384,-5.633714 -0.5843,-0.391512 -3.38267,-0.60245 -6.21861,-0.46875 l -5.15625,0.243089 -0.29045,4.568381 c -0.35535,5.589132 0.28929,7.531294 2.25003,6.778888 0.81126,-0.311311 3.28528,-0.566019 5.49782,-0.566019 z m 33.73157,-3.726796 c 1.95361,-0.742761 2.40478,-1.53426 2.40478,-4.21875 l 0,-3.304454 -11.64207,0 c -6.40315,0 -12.3094,0.256073 -13.125,0.569052 -1.752,0.672303 -1.98774,5.113644 -0.35793,6.743448 1.38229,1.382292 19.204,1.547568 22.72022,0.210704 z"
     id="path4146"
     inkscape:connector-curvature="0" />
</svg>
